<svg width="28" height="8" viewBox="0 0 28 8" fill="none" xmlns="http://www.w3.org/2000/svg">
<mask id="path-1-outside-1_366_9" maskUnits="userSpaceOnUse" x="0" y="0" width="28" height="8" fill="black">
<rect fill="white" width="28" height="8"/>
<path fill-rule="evenodd" clip-rule="evenodd" d="M6.36866 3.70318L5.62015 2.95466L5.8391 2.73571C5.93204 2.6424 5.98422 2.51607 5.98422 2.38437C5.98422 2.25267 5.93204 2.12634 5.8391 2.03303L5.4623 1.65623C5.36848 1.56327 5.24176 1.51112 5.10969 1.51112C4.97762 1.51112 4.85089 1.56327 4.75707 1.65623L4.54066 1.87263L3.78961 1.12412C3.70983 1.04463 3.6018 1 3.48919 1C3.37657 1 3.26854 1.04463 3.18876 1.12412L2.22894 2.08395C2.14945 2.16372 2.10482 2.27175 2.10482 2.38437C2.10482 2.49699 2.14945 2.60502 2.22894 2.68479L2.97999 3.43585L2.9418 3.47149C2.89522 3.51764 2.85825 3.57257 2.83301 3.63309C2.80778 3.69361 2.79479 3.75854 2.79479 3.82411C2.79479 3.88968 2.80778 3.9546 2.83301 4.01513C2.85825 4.07565 2.89522 4.13057 2.9418 4.17672L2.96194 4.19686C2.70563 4.01585 2.39783 3.91689 2.07986 3.91708C1.67473 3.91732 1.2863 4.07848 1 4.36512L1.89363 5.25875C1.83947 5.27214 1.7913 5.30318 1.75673 5.34698C1.72216 5.39077 1.70314 5.44482 1.70268 5.50061C1.70289 5.56808 1.72977 5.63272 1.77748 5.68042C1.82518 5.72812 1.88982 5.75501 1.95728 5.75521C2.0132 5.75523 2.06749 5.7364 2.11138 5.70175C2.15527 5.6671 2.18619 5.61866 2.19915 5.56426L3.16152 6.52409C3.44781 6.23745 3.60852 5.84883 3.60828 5.4437C3.60809 5.12594 3.5089 4.81845 3.32782 4.56246C3.42015 4.6498 3.54254 4.69865 3.66996 4.69865C3.80166 4.69865 3.92799 4.64647 4.0213 4.55352L4.05949 4.51534L4.80799 5.26385C4.88807 5.34374 4.99657 5.38861 5.10969 5.38861C5.2228 5.38861 5.33131 5.34374 5.41138 5.26385L6.36866 4.30657C6.40858 4.26712 6.44028 4.22014 6.46191 4.16835C6.48354 4.11656 6.49468 4.061 6.49468 4.00487C6.49468 3.94875 6.48354 3.89318 6.46191 3.84139C6.44028 3.7896 6.40858 3.74262 6.36866 3.70318ZM2.52936 2.38437L3.48919 1.42454L4.2377 2.1756L3.28042 3.13288L2.52936 2.38437ZM5.11096 4.96342L4.3599 4.21491L5.31973 3.25509L6.06824 4.0036L5.11096 4.96342ZM9.37324 3.09304L10.0657 3.05043C10.0326 2.79948 9.91656 2.60121 9.7177 2.45561C9.52002 2.31001 9.24895 2.23722 8.90449 2.23722C8.6713 2.23722 8.4677 2.27154 8.2937 2.3402C8.12087 2.40885 7.98652 2.50651 7.89064 2.63317C7.79594 2.75982 7.7486 2.91075 7.7486 3.08594C7.7486 3.28954 7.81311 3.45703 7.94213 3.58842C8.07234 3.71982 8.27061 3.81214 8.53695 3.86541L9.00925 3.95952C9.12762 3.98319 9.21522 4.01752 9.27203 4.0625C9.32885 4.1063 9.35785 4.16252 9.35904 4.23118C9.35785 4.31286 9.31642 4.37973 9.23475 4.43182C9.15425 4.48272 9.04772 4.50817 8.91514 4.50817C8.7802 4.50817 8.66952 4.47976 8.58311 4.42294C8.4967 4.36494 8.44225 4.28089 8.41976 4.17081L7.6758 4.20987C7.71249 4.47029 7.83737 4.67625 8.05044 4.82777C8.26469 4.9781 8.55234 5.05327 8.91337 5.05327C9.15011 5.05327 9.35904 5.01598 9.54014 4.94141C9.72244 4.86565 9.86567 4.7603 9.96983 4.62536C10.0752 4.49041 10.1279 4.33357 10.1279 4.15483C10.1279 3.95833 10.0628 3.79972 9.93254 3.67898C9.80234 3.55824 9.60466 3.47064 9.33951 3.41619L8.8459 3.31676C8.71924 3.28954 8.62987 3.25343 8.57779 3.20845C8.5257 3.16347 8.49966 3.10843 8.49966 3.04332C8.49966 2.96165 8.53991 2.89654 8.6204 2.84801C8.70089 2.7983 8.79973 2.77344 8.91692 2.77344C9.00451 2.77344 9.07968 2.78823 9.14242 2.81783C9.20634 2.84624 9.25783 2.88471 9.29689 2.93324C9.33595 2.98059 9.3614 3.03385 9.37324 3.09304ZM10.9167 4.96094C11.0528 5.02131 11.2078 5.05149 11.3819 5.05149C11.5168 5.05149 11.6358 5.03374 11.7387 4.99822C11.8417 4.96153 11.9299 4.91122 12.0033 4.8473C12.0767 4.7822 12.1353 4.70703 12.1791 4.6218H12.2004V5H12.9177V3.16051C12.9177 2.99834 12.8864 2.85926 12.8236 2.74325C12.7609 2.62607 12.6751 2.53018 12.5662 2.45561C12.4584 2.38104 12.3347 2.32599 12.1951 2.29048C12.0566 2.25497 11.9116 2.23722 11.76 2.23722C11.5422 2.23722 11.3505 2.27036 11.1848 2.33665C11.0202 2.40175 10.8859 2.49527 10.7817 2.61719C10.6775 2.73793 10.6077 2.88116 10.5722 3.04688L11.2718 3.10369C11.2978 3.01373 11.3511 2.93916 11.4316 2.87997C11.5121 2.8196 11.6204 2.78942 11.7565 2.78942C11.8855 2.78942 11.985 2.82019 12.0548 2.88175C12.1258 2.9433 12.1613 3.0303 12.1613 3.14276V3.15341C12.1613 3.21141 12.1394 3.25521 12.0956 3.2848C12.0518 3.31439 11.9814 3.33688 11.8843 3.35227C11.7873 3.36648 11.6594 3.38187 11.5008 3.39844C11.3659 3.41146 11.2368 3.43395 11.1137 3.46591C10.9918 3.49787 10.8829 3.54522 10.787 3.60795C10.6912 3.67069 10.6154 3.75355 10.5598 3.85653C10.5041 3.95952 10.4763 4.08677 10.4763 4.23828C10.4763 4.41821 10.5154 4.56854 10.5935 4.68928C10.6728 4.80883 10.7805 4.89938 10.9167 4.96094ZM11.8932 4.46378C11.808 4.50758 11.7097 4.52947 11.5985 4.52947C11.4825 4.52947 11.3866 4.50284 11.3108 4.44957C11.2363 4.39512 11.199 4.31641 11.199 4.21342C11.199 4.1424 11.2173 4.08321 11.254 4.03587C11.2907 3.98733 11.3422 3.94886 11.4085 3.92045C11.4748 3.89205 11.5523 3.87133 11.6411 3.85831L11.7796 3.83878C11.8305 3.83049 11.8814 3.82161 11.9323 3.81214C11.9832 3.80149 12.0288 3.79025 12.069 3.77841C12.1104 3.76539 12.143 3.75118 12.1667 3.7358V4.02521C12.1667 4.12109 12.1424 4.20691 12.0939 4.28267C12.0453 4.35843 11.9784 4.4188 11.8932 4.46378ZM14.9552 2.84091V2.27273H14.442V1.61932H13.6857V2.27273H13.3128V2.84091H13.6857V4.26136C13.6845 4.4401 13.7218 4.58807 13.7975 4.70526C13.8733 4.82244 13.9792 4.90885 14.1153 4.96449C14.2527 5.02012 14.4125 5.04439 14.5947 5.03729C14.693 5.03374 14.7764 5.02367 14.8451 5.0071C14.9138 4.99171 14.967 4.9781 15.0049 4.96626L14.8859 4.40341C14.867 4.40696 14.8398 4.41229 14.8043 4.41939C14.7687 4.42531 14.7332 4.42827 14.6977 4.42827C14.6468 4.42827 14.6018 4.42057 14.5628 4.40518C14.5249 4.3898 14.4953 4.36316 14.474 4.32528C14.4527 4.28622 14.442 4.23177 14.442 4.16193V2.84091H14.9552ZM15.9371 4.88281C16.1395 4.99645 16.381 5.05327 16.6615 5.05327C16.8864 5.05327 17.0847 5.01894 17.2563 4.95028C17.4291 4.88045 17.57 4.78338 17.6789 4.65909C17.789 4.53362 17.8618 4.38684 17.8973 4.21875L17.1977 4.17259C17.1717 4.24124 17.1338 4.29924 17.0841 4.34659C17.0344 4.39394 16.9746 4.42945 16.9048 4.45312C16.8349 4.4768 16.758 4.48864 16.6739 4.48864C16.5473 4.48864 16.4378 4.462 16.3455 4.40874C16.2531 4.35547 16.1815 4.27971 16.1306 4.18146C16.0809 4.08321 16.056 3.96662 16.056 3.83168V3.8299H17.9133V3.62216C17.9133 3.39015 17.8807 3.18774 17.8156 3.01491C17.7505 2.84091 17.6594 2.6965 17.5422 2.58168C17.4262 2.46686 17.2901 2.38104 17.1338 2.32422C16.9787 2.26622 16.8112 2.23722 16.6313 2.23722C16.3638 2.23722 16.1306 2.2964 15.9317 2.41477C15.7341 2.53314 15.5808 2.69827 15.4719 2.91016C15.363 3.12204 15.3085 3.36825 15.3085 3.64879C15.3085 3.93643 15.363 4.18561 15.4719 4.39631C15.5808 4.60582 15.7358 4.76799 15.9371 4.88281ZM16.0567 3.36115C16.0613 3.26322 16.0865 3.17385 16.1324 3.09304C16.1821 3.00426 16.2508 2.93383 16.3384 2.88175C16.4271 2.82848 16.5289 2.80185 16.6437 2.80185C16.7538 2.80185 16.8503 2.82611 16.9332 2.87464C17.0172 2.92199 17.0829 2.98769 17.1303 3.07173C17.1776 3.15578 17.2013 3.25225 17.2013 3.36115H16.0567ZM19.1633 5V1.36364H18.4069V5H19.1633ZM20.5256 5V1.36364H19.7692V5H20.5256ZM21.1315 2.27273V5H21.8879V2.27273H21.1315ZM21.2221 1.8093C21.3025 1.88388 21.399 1.92116 21.5115 1.92116C21.6239 1.92116 21.7198 1.88388 21.7991 1.8093C21.8796 1.73355 21.9198 1.64299 21.9198 1.53764C21.9198 1.43348 21.8796 1.34411 21.7991 1.26953C21.7198 1.19377 21.6239 1.15589 21.5115 1.15589C21.399 1.15589 21.3025 1.19377 21.2221 1.26953C21.1427 1.34411 21.1031 1.43348 21.1031 1.53764C21.1031 1.64299 21.1427 1.73355 21.2221 1.8093ZM23.9444 2.84091V2.27273H23.4313V1.61932H22.6749V2.27273H22.302V2.84091H22.6749V4.26136C22.6737 4.4401 22.711 4.58807 22.7868 4.70526C22.8625 4.82244 22.9685 4.90885 23.1046 4.96449C23.2419 5.02012 23.4017 5.04439 23.584 5.03729C23.6822 5.03374 23.7657 5.02367 23.8344 5.0071C23.903 4.99171 23.9563 4.9781 23.9942 4.96626L23.8752 4.40341C23.8563 4.40696 23.829 4.41229 23.7935 4.41939C23.758 4.42531 23.7225 4.42827 23.687 4.42827C23.6361 4.42827 23.5911 4.42057 23.552 4.40518C23.5142 4.3898 23.4846 4.36316 23.4633 4.32528C23.442 4.28622 23.4313 4.23177 23.4313 4.16193V2.84091H23.9444ZM24.9263 4.88281C25.1287 4.99645 25.3702 5.05327 25.6508 5.05327C25.8757 5.05327 26.0739 5.01894 26.2456 4.95028C26.4184 4.88045 26.5593 4.78338 26.6682 4.65909C26.7782 4.53362 26.851 4.38684 26.8866 4.21875L26.187 4.17259C26.1609 4.24124 26.1231 4.29924 26.0733 4.34659C26.0236 4.39394 25.9639 4.42945 25.894 4.45312C25.8242 4.4768 25.7472 4.48864 25.6632 4.48864C25.5365 4.48864 25.427 4.462 25.3347 4.40874C25.2424 4.35547 25.1708 4.27971 25.1199 4.18146C25.0702 4.08321 25.0453 3.96662 25.0453 3.83168V3.8299H26.9025V3.62216C26.9025 3.39015 26.87 3.18774 26.8049 3.01491C26.7398 2.84091 26.6486 2.6965 26.5314 2.58168C26.4154 2.46686 26.2793 2.38104 26.1231 2.32422C25.968 2.26622 25.8005 2.23722 25.6206 2.23722C25.3531 2.23722 25.1199 2.2964 24.921 2.41477C24.7233 2.53314 24.57 2.69827 24.4611 2.91016C24.3522 3.12204 24.2978 3.36825 24.2978 3.64879C24.2978 3.93643 24.3522 4.18561 24.4611 4.39631C24.57 4.60582 24.7251 4.76799 24.9263 4.88281ZM25.046 3.36115C25.0506 3.26322 25.0758 3.17385 25.1216 3.09304C25.1714 3.00426 25.24 2.93383 25.3276 2.88175C25.4164 2.82848 25.5182 2.80185 25.633 2.80185C25.7431 2.80185 25.8396 2.82611 25.9224 2.87464C26.0065 2.92199 26.0722 2.98769 26.1195 3.07173C26.1669 3.15578 26.1905 3.25225 26.1905 3.36115H25.046Z"/>
</mask>
<path fill-rule="evenodd" clip-rule="evenodd" d="M6.36866 3.70318L5.62015 2.95466L5.8391 2.73571C5.93204 2.6424 5.98422 2.51607 5.98422 2.38437C5.98422 2.25267 5.93204 2.12634 5.8391 2.03303L5.4623 1.65623C5.36848 1.56327 5.24176 1.51112 5.10969 1.51112C4.97762 1.51112 4.85089 1.56327 4.75707 1.65623L4.54066 1.87263L3.78961 1.12412C3.70983 1.04463 3.6018 1 3.48919 1C3.37657 1 3.26854 1.04463 3.18876 1.12412L2.22894 2.08395C2.14945 2.16372 2.10482 2.27175 2.10482 2.38437C2.10482 2.49699 2.14945 2.60502 2.22894 2.68479L2.97999 3.43585L2.9418 3.47149C2.89522 3.51764 2.85825 3.57257 2.83301 3.63309C2.80778 3.69361 2.79479 3.75854 2.79479 3.82411C2.79479 3.88968 2.80778 3.9546 2.83301 4.01513C2.85825 4.07565 2.89522 4.13057 2.9418 4.17672L2.96194 4.19686C2.70563 4.01585 2.39783 3.91689 2.07986 3.91708C1.67473 3.91732 1.2863 4.07848 1 4.36512L1.89363 5.25875C1.83947 5.27214 1.7913 5.30318 1.75673 5.34698C1.72216 5.39077 1.70314 5.44482 1.70268 5.50061C1.70289 5.56808 1.72977 5.63272 1.77748 5.68042C1.82518 5.72812 1.88982 5.75501 1.95728 5.75521C2.0132 5.75523 2.06749 5.7364 2.11138 5.70175C2.15527 5.6671 2.18619 5.61866 2.19915 5.56426L3.16152 6.52409C3.44781 6.23745 3.60852 5.84883 3.60828 5.4437C3.60809 5.12594 3.5089 4.81845 3.32782 4.56246C3.42015 4.6498 3.54254 4.69865 3.66996 4.69865C3.80166 4.69865 3.92799 4.64647 4.0213 4.55352L4.05949 4.51534L4.80799 5.26385C4.88807 5.34374 4.99657 5.38861 5.10969 5.38861C5.2228 5.38861 5.33131 5.34374 5.41138 5.26385L6.36866 4.30657C6.40858 4.26712 6.44028 4.22014 6.46191 4.16835C6.48354 4.11656 6.49468 4.061 6.49468 4.00487C6.49468 3.94875 6.48354 3.89318 6.46191 3.84139C6.44028 3.7896 6.40858 3.74262 6.36866 3.70318ZM2.52936 2.38437L3.48919 1.42454L4.2377 2.1756L3.28042 3.13288L2.52936 2.38437ZM5.11096 4.96342L4.3599 4.21491L5.31973 3.25509L6.06824 4.0036L5.11096 4.96342ZM9.37324 3.09304L10.0657 3.05043C10.0326 2.79948 9.91656 2.60121 9.7177 2.45561C9.52002 2.31001 9.24895 2.23722 8.90449 2.23722C8.6713 2.23722 8.4677 2.27154 8.2937 2.3402C8.12087 2.40885 7.98652 2.50651 7.89064 2.63317C7.79594 2.75982 7.7486 2.91075 7.7486 3.08594C7.7486 3.28954 7.81311 3.45703 7.94213 3.58842C8.07234 3.71982 8.27061 3.81214 8.53695 3.86541L9.00925 3.95952C9.12762 3.98319 9.21522 4.01752 9.27203 4.0625C9.32885 4.1063 9.35785 4.16252 9.35904 4.23118C9.35785 4.31286 9.31642 4.37973 9.23475 4.43182C9.15425 4.48272 9.04772 4.50817 8.91514 4.50817C8.7802 4.50817 8.66952 4.47976 8.58311 4.42294C8.4967 4.36494 8.44225 4.28089 8.41976 4.17081L7.6758 4.20987C7.71249 4.47029 7.83737 4.67625 8.05044 4.82777C8.26469 4.9781 8.55234 5.05327 8.91337 5.05327C9.15011 5.05327 9.35904 5.01598 9.54014 4.94141C9.72244 4.86565 9.86567 4.7603 9.96983 4.62536C10.0752 4.49041 10.1279 4.33357 10.1279 4.15483C10.1279 3.95833 10.0628 3.79972 9.93254 3.67898C9.80234 3.55824 9.60466 3.47064 9.33951 3.41619L8.8459 3.31676C8.71924 3.28954 8.62987 3.25343 8.57779 3.20845C8.5257 3.16347 8.49966 3.10843 8.49966 3.04332C8.49966 2.96165 8.53991 2.89654 8.6204 2.84801C8.70089 2.7983 8.79973 2.77344 8.91692 2.77344C9.00451 2.77344 9.07968 2.78823 9.14242 2.81783C9.20634 2.84624 9.25783 2.88471 9.29689 2.93324C9.33595 2.98059 9.3614 3.03385 9.37324 3.09304ZM10.9167 4.96094C11.0528 5.02131 11.2078 5.05149 11.3819 5.05149C11.5168 5.05149 11.6358 5.03374 11.7387 4.99822C11.8417 4.96153 11.9299 4.91122 12.0033 4.8473C12.0767 4.7822 12.1353 4.70703 12.1791 4.6218H12.2004V5H12.9177V3.16051C12.9177 2.99834 12.8864 2.85926 12.8236 2.74325C12.7609 2.62607 12.6751 2.53018 12.5662 2.45561C12.4584 2.38104 12.3347 2.32599 12.1951 2.29048C12.0566 2.25497 11.9116 2.23722 11.76 2.23722C11.5422 2.23722 11.3505 2.27036 11.1848 2.33665C11.0202 2.40175 10.8859 2.49527 10.7817 2.61719C10.6775 2.73793 10.6077 2.88116 10.5722 3.04688L11.2718 3.10369C11.2978 3.01373 11.3511 2.93916 11.4316 2.87997C11.5121 2.8196 11.6204 2.78942 11.7565 2.78942C11.8855 2.78942 11.985 2.82019 12.0548 2.88175C12.1258 2.9433 12.1613 3.0303 12.1613 3.14276V3.15341C12.1613 3.21141 12.1394 3.25521 12.0956 3.2848C12.0518 3.31439 11.9814 3.33688 11.8843 3.35227C11.7873 3.36648 11.6594 3.38187 11.5008 3.39844C11.3659 3.41146 11.2368 3.43395 11.1137 3.46591C10.9918 3.49787 10.8829 3.54522 10.787 3.60795C10.6912 3.67069 10.6154 3.75355 10.5598 3.85653C10.5041 3.95952 10.4763 4.08677 10.4763 4.23828C10.4763 4.41821 10.5154 4.56854 10.5935 4.68928C10.6728 4.80883 10.7805 4.89938 10.9167 4.96094ZM11.8932 4.46378C11.808 4.50758 11.7097 4.52947 11.5985 4.52947C11.4825 4.52947 11.3866 4.50284 11.3108 4.44957C11.2363 4.39512 11.199 4.31641 11.199 4.21342C11.199 4.1424 11.2173 4.08321 11.254 4.03587C11.2907 3.98733 11.3422 3.94886 11.4085 3.92045C11.4748 3.89205 11.5523 3.87133 11.6411 3.85831L11.7796 3.83878C11.8305 3.83049 11.8814 3.82161 11.9323 3.81214C11.9832 3.80149 12.0288 3.79025 12.069 3.77841C12.1104 3.76539 12.143 3.75118 12.1667 3.7358V4.02521C12.1667 4.12109 12.1424 4.20691 12.0939 4.28267C12.0453 4.35843 11.9784 4.4188 11.8932 4.46378ZM14.9552 2.84091V2.27273H14.442V1.61932H13.6857V2.27273H13.3128V2.84091H13.6857V4.26136C13.6845 4.4401 13.7218 4.58807 13.7975 4.70526C13.8733 4.82244 13.9792 4.90885 14.1153 4.96449C14.2527 5.02012 14.4125 5.04439 14.5947 5.03729C14.693 5.03374 14.7764 5.02367 14.8451 5.0071C14.9138 4.99171 14.967 4.9781 15.0049 4.96626L14.8859 4.40341C14.867 4.40696 14.8398 4.41229 14.8043 4.41939C14.7687 4.42531 14.7332 4.42827 14.6977 4.42827C14.6468 4.42827 14.6018 4.42057 14.5628 4.40518C14.5249 4.3898 14.4953 4.36316 14.474 4.32528C14.4527 4.28622 14.442 4.23177 14.442 4.16193V2.84091H14.9552ZM15.9371 4.88281C16.1395 4.99645 16.381 5.05327 16.6615 5.05327C16.8864 5.05327 17.0847 5.01894 17.2563 4.95028C17.4291 4.88045 17.57 4.78338 17.6789 4.65909C17.789 4.53362 17.8618 4.38684 17.8973 4.21875L17.1977 4.17259C17.1717 4.24124 17.1338 4.29924 17.0841 4.34659C17.0344 4.39394 16.9746 4.42945 16.9048 4.45312C16.8349 4.4768 16.758 4.48864 16.6739 4.48864C16.5473 4.48864 16.4378 4.462 16.3455 4.40874C16.2531 4.35547 16.1815 4.27971 16.1306 4.18146C16.0809 4.08321 16.056 3.96662 16.056 3.83168V3.8299H17.9133V3.62216C17.9133 3.39015 17.8807 3.18774 17.8156 3.01491C17.7505 2.84091 17.6594 2.6965 17.5422 2.58168C17.4262 2.46686 17.2901 2.38104 17.1338 2.32422C16.9787 2.26622 16.8112 2.23722 16.6313 2.23722C16.3638 2.23722 16.1306 2.2964 15.9317 2.41477C15.7341 2.53314 15.5808 2.69827 15.4719 2.91016C15.363 3.12204 15.3085 3.36825 15.3085 3.64879C15.3085 3.93643 15.363 4.18561 15.4719 4.39631C15.5808 4.60582 15.7358 4.76799 15.9371 4.88281ZM16.0567 3.36115C16.0613 3.26322 16.0865 3.17385 16.1324 3.09304C16.1821 3.00426 16.2508 2.93383 16.3384 2.88175C16.4271 2.82848 16.5289 2.80185 16.6437 2.80185C16.7538 2.80185 16.8503 2.82611 16.9332 2.87464C17.0172 2.92199 17.0829 2.98769 17.1303 3.07173C17.1776 3.15578 17.2013 3.25225 17.2013 3.36115H16.0567ZM19.1633 5V1.36364H18.4069V5H19.1633ZM20.5256 5V1.36364H19.7692V5H20.5256ZM21.1315 2.27273V5H21.8879V2.27273H21.1315ZM21.2221 1.8093C21.3025 1.88388 21.399 1.92116 21.5115 1.92116C21.6239 1.92116 21.7198 1.88388 21.7991 1.8093C21.8796 1.73355 21.9198 1.64299 21.9198 1.53764C21.9198 1.43348 21.8796 1.34411 21.7991 1.26953C21.7198 1.19377 21.6239 1.15589 21.5115 1.15589C21.399 1.15589 21.3025 1.19377 21.2221 1.26953C21.1427 1.34411 21.1031 1.43348 21.1031 1.53764C21.1031 1.64299 21.1427 1.73355 21.2221 1.8093ZM23.9444 2.84091V2.27273H23.4313V1.61932H22.6749V2.27273H22.302V2.84091H22.6749V4.26136C22.6737 4.4401 22.711 4.58807 22.7868 4.70526C22.8625 4.82244 22.9685 4.90885 23.1046 4.96449C23.2419 5.02012 23.4017 5.04439 23.584 5.03729C23.6822 5.03374 23.7657 5.02367 23.8344 5.0071C23.903 4.99171 23.9563 4.9781 23.9942 4.96626L23.8752 4.40341C23.8563 4.40696 23.829 4.41229 23.7935 4.41939C23.758 4.42531 23.7225 4.42827 23.687 4.42827C23.6361 4.42827 23.5911 4.42057 23.552 4.40518C23.5142 4.3898 23.4846 4.36316 23.4633 4.32528C23.442 4.28622 23.4313 4.23177 23.4313 4.16193V2.84091H23.9444ZM24.9263 4.88281C25.1287 4.99645 25.3702 5.05327 25.6508 5.05327C25.8757 5.05327 26.0739 5.01894 26.2456 4.95028C26.4184 4.88045 26.5593 4.78338 26.6682 4.65909C26.7782 4.53362 26.851 4.38684 26.8866 4.21875L26.187 4.17259C26.1609 4.24124 26.1231 4.29924 26.0733 4.34659C26.0236 4.39394 25.9639 4.42945 25.894 4.45312C25.8242 4.4768 25.7472 4.48864 25.6632 4.48864C25.5365 4.48864 25.427 4.462 25.3347 4.40874C25.2424 4.35547 25.1708 4.27971 25.1199 4.18146C25.0702 4.08321 25.0453 3.96662 25.0453 3.83168V3.8299H26.9025V3.62216C26.9025 3.39015 26.87 3.18774 26.8049 3.01491C26.7398 2.84091 26.6486 2.6965 26.5314 2.58168C26.4154 2.46686 26.2793 2.38104 26.1231 2.32422C25.968 2.26622 25.8005 2.23722 25.6206 2.23722C25.3531 2.23722 25.1199 2.2964 24.921 2.41477C24.7233 2.53314 24.57 2.69827 24.4611 2.91016C24.3522 3.12204 24.2978 3.36825 24.2978 3.64879C24.2978 3.93643 24.3522 4.18561 24.4611 4.39631C24.57 4.60582 24.7251 4.76799 24.9263 4.88281ZM25.046 3.36115C25.0506 3.26322 25.0758 3.17385 25.1216 3.09304C25.1714 3.00426 25.24 2.93383 25.3276 2.88175C25.4164 2.82848 25.5182 2.80185 25.633 2.80185C25.7431 2.80185 25.8396 2.82611 25.9224 2.87464C26.0065 2.92199 26.0722 2.98769 26.1195 3.07173C26.1669 3.15578 26.1905 3.25225 26.1905 3.36115H25.046Z" fill="white"/>
<path d="M5.62015 2.95466L4.91304 2.24756C4.52252 2.63808 4.52252 3.27125 4.91304 3.66177L5.62015 2.95466ZM6.36866 3.70318L5.66154 4.41029L5.66579 4.41449L6.36866 3.70318ZM5.8391 2.73571L6.54621 3.44282L6.54762 3.44141L5.8391 2.73571ZM5.8391 2.03303L6.54762 1.32733L6.54621 1.32592L5.8391 2.03303ZM5.4623 1.65623L6.16941 0.949112L6.16614 0.945871L5.4623 1.65623ZM4.75707 1.65623L4.05322 0.945863L4.04996 0.94912L4.75707 1.65623ZM4.54066 1.87263L3.83476 2.58094C4.22548 2.97033 4.85772 2.9698 5.24777 2.57974L4.54066 1.87263ZM3.78961 1.12412L4.49551 0.415816L4.49544 0.415741L3.78961 1.12412ZM3.18876 1.12412L2.48293 0.415739L2.48166 0.417015L3.18876 1.12412ZM2.22894 2.08395L1.52183 1.37684L1.52056 1.37812L2.22894 2.08395ZM2.22894 2.68479L1.52055 3.39062L1.52183 3.3919L2.22894 2.68479ZM2.97999 3.43585L3.66231 4.16691C3.86057 3.98186 3.97517 3.72424 3.97985 3.45308C3.98452 3.18193 3.87886 2.92051 3.6871 2.72874L2.97999 3.43585ZM2.9418 3.47149L2.25949 2.74044C2.25222 2.74722 2.24505 2.75411 2.23799 2.76111L2.9418 3.47149ZM2.83301 4.01513L3.756 3.6303L3.756 3.6303L2.83301 4.01513ZM2.9418 4.17672L3.64892 3.46961L3.64562 3.46634L2.9418 4.17672ZM2.96194 4.19686L2.38507 5.0137C2.80924 5.31325 3.39211 5.23831 3.72669 4.84119C4.06128 4.44407 4.03623 3.85694 3.66905 3.48976L2.96194 4.19686ZM2.07986 3.91708L2.08045 4.91708L2.08045 4.91708L2.07986 3.91708ZM1 4.36512L0.292477 3.65843C-0.0976549 4.04902 -0.0974684 4.68186 0.292893 5.07223L1 4.36512ZM1.89363 5.25875L2.13372 6.2295C2.48389 6.14289 2.76028 5.87441 2.85701 5.5269C2.95374 5.17938 2.85581 4.80671 2.60074 4.55164L1.89363 5.25875ZM1.70268 5.50061L0.702655 5.49238L0.702688 5.5036L1.70268 5.50061ZM1.95728 5.75521L1.95429 6.75521L1.95686 6.75521L1.95728 5.75521ZM2.19915 5.56426L2.90532 4.85622C2.64898 4.60056 2.27448 4.50342 1.92619 4.60224C1.5779 4.70105 1.31023 4.9804 1.22635 5.33259L2.19915 5.56426ZM3.16152 6.52409L2.45535 7.23213C2.84618 7.62194 3.47895 7.62133 3.86904 7.23078L3.16152 6.52409ZM3.60828 5.4437L2.60828 5.44429L2.60828 5.44429L3.60828 5.4437ZM3.32782 4.56246L4.01508 3.83604C3.64162 3.48271 3.06109 3.47013 2.67268 3.80696C2.28426 4.14378 2.21453 4.72023 2.51143 5.13995L3.32782 4.56246ZM4.0213 4.55352L4.72702 5.26202L4.72841 5.26063L4.0213 4.55352ZM4.05949 4.51534L4.7666 3.80823C4.57907 3.6207 4.32471 3.51534 4.0595 3.51534C3.79428 3.51533 3.53992 3.62069 3.35239 3.80823L4.05949 4.51534ZM4.80799 5.26385L4.10088 5.97095L4.10168 5.97175L4.80799 5.26385ZM5.41138 5.26385L6.11769 5.97175L6.11849 5.97095L5.41138 5.26385ZM6.36866 4.30657L5.66578 3.59524L5.66155 3.59946L6.36866 4.30657ZM3.48919 1.42454L4.19749 0.718639C4.01007 0.530577 3.75554 0.42477 3.49003 0.424545C3.22452 0.42432 2.96982 0.529694 2.78208 0.717438L3.48919 1.42454ZM2.52936 2.38437L1.82225 1.67726C1.63451 1.86501 1.52913 2.11971 1.52936 2.38522C1.52959 2.65073 1.63539 2.90525 1.82345 3.09268L2.52936 2.38437ZM4.2377 2.1756L4.9448 2.88271C5.33486 2.49265 5.3354 1.86041 4.946 1.4697L4.2377 2.1756ZM3.28042 3.13288L2.57451 3.84119C2.96523 4.23058 3.59747 4.23004 3.98752 3.83999L3.28042 3.13288ZM4.3599 4.21491L3.6528 3.50781C3.46505 3.69555 3.35968 3.95025 3.3599 4.21576C3.36013 4.48127 3.46593 4.73579 3.654 4.92322L4.3599 4.21491ZM5.11096 4.96342L4.40505 5.67173C4.79614 6.06149 5.4291 6.06053 5.819 5.66959L5.11096 4.96342ZM5.31973 3.25509L6.02683 2.54798C5.63631 2.15746 5.00314 2.15746 4.61262 2.54798L5.31973 3.25509ZM6.06824 4.0036L6.77628 4.70977C7.16592 4.31909 7.1655 3.68665 6.77535 3.29649L6.06824 4.0036ZM10.0657 3.05043L10.1271 4.04854C10.404 4.0315 10.6613 3.90027 10.8376 3.6862C11.0139 3.47213 11.0934 3.19444 11.0571 2.91949L10.0657 3.05043ZM9.37324 3.09304L8.39266 3.28915C8.4907 3.77936 8.93569 4.12186 9.43466 4.09115L9.37324 3.09304ZM9.7177 2.45561L9.12466 3.26079L9.12696 3.26247L9.7177 2.45561ZM8.2937 2.3402L7.92667 1.40998L7.9245 1.41085L8.2937 2.3402ZM7.89064 2.63317L7.09332 2.02959L7.08974 2.03437L7.89064 2.63317ZM7.94213 3.58842L7.22862 4.28908L7.23183 4.29232L7.94213 3.58842ZM8.53695 3.86541L8.34083 4.84599L8.34154 4.84613L8.53695 3.86541ZM9.00925 3.95952L9.20537 2.97894L9.20466 2.97879L9.00925 3.95952ZM9.27203 4.0625L8.65128 4.84661L8.66153 4.85451L9.27203 4.0625ZM9.35904 4.23118L10.3589 4.24567C10.3591 4.23509 10.3591 4.22452 10.3589 4.21394L9.35904 4.23118ZM9.23475 4.43182L9.76921 5.27702L9.77241 5.27498L9.23475 4.43182ZM8.58311 4.42294L8.02577 5.25327L8.03371 5.2585L8.58311 4.42294ZM8.41976 4.17081L9.39952 3.97064C9.30046 3.48573 8.86157 3.14623 8.36733 3.17219L8.41976 4.17081ZM7.6758 4.20987L7.62336 3.21125C7.34333 3.22595 7.08234 3.35755 6.90403 3.57397C6.72571 3.79039 6.64645 4.07173 6.68558 4.3494L7.6758 4.20987ZM8.05044 4.82777L7.47091 5.64274L7.47607 5.64636L8.05044 4.82777ZM9.54014 4.94141L9.9209 5.86609L9.92391 5.86484L9.54014 4.94141ZM9.96983 4.62536L9.18159 4.00997L9.17824 4.0143L9.96983 4.62536ZM9.93254 3.67898L9.2526 4.41224L9.25261 4.41225L9.93254 3.67898ZM9.33951 3.41619L9.54067 2.43663L9.53698 2.43588L9.33951 3.41619ZM8.8459 3.31676L8.63573 4.29451L8.64843 4.29707L8.8459 3.31676ZM8.57779 3.20845L7.92416 3.96527L7.92417 3.96528L8.57779 3.20845ZM8.6204 2.84801L9.13678 3.70444L9.14589 3.69881L8.6204 2.84801ZM9.14242 2.81783L8.7158 3.72226C8.72259 3.72546 8.72942 3.72859 8.73628 3.73164L9.14242 2.81783ZM9.29689 2.93324L8.51782 3.56029L8.52552 3.56962L9.29689 2.93324ZM10.9167 4.96094L10.5046 5.87214L10.5113 5.87508L10.9167 4.96094ZM11.7387 4.99822L12.0647 5.94365L12.0744 5.94021L11.7387 4.99822ZM12.0033 4.8473L12.6601 5.60141L12.6669 5.59537L12.0033 4.8473ZM12.1791 4.6218V3.6218C11.8043 3.6218 11.461 3.83138 11.2897 4.16473L12.1791 4.6218ZM12.2004 4.6218H13.2004C13.2004 4.06952 12.7527 3.6218 12.2004 3.6218V4.6218ZM12.2004 5H11.2004C11.2004 5.55228 11.6481 6 12.2004 6V5ZM12.9177 5V6C13.47 6 13.9177 5.55228 13.9177 5H12.9177ZM12.8236 2.74325L11.942 3.21523L11.944 3.21896L12.8236 2.74325ZM12.5662 2.45561L11.9969 3.27781L12.0012 3.2807L12.5662 2.45561ZM12.1951 2.29048L11.9467 3.25915L11.9487 3.25965L12.1951 2.29048ZM11.1848 2.33665L11.5527 3.26651L11.5562 3.26512L11.1848 2.33665ZM10.7817 2.61719L11.5389 3.27043L11.542 3.26676L10.7817 2.61719ZM10.5722 3.04688L9.59439 2.83734C9.53408 3.11878 9.59796 3.41255 9.7697 3.64353C9.94143 3.87451 10.2044 4.02029 10.4912 4.04359L10.5722 3.04688ZM11.2718 3.10369L11.1908 4.10041C11.6647 4.1389 12.1001 3.83843 12.2323 3.38175L11.2718 3.10369ZM11.4316 2.87997L12.024 3.68566L12.0316 3.67997L11.4316 2.87997ZM12.0548 2.88175L11.3936 3.63198L11.3999 3.63743L12.0548 2.88175ZM12.0956 3.2848L11.5358 2.45621L11.5358 2.45622L12.0956 3.2848ZM11.8843 3.35227L12.0291 4.3418L12.0409 4.33994L11.8843 3.35227ZM11.5008 3.39844L11.5969 4.39385L11.6047 4.39302L11.5008 3.39844ZM11.1137 3.46591L10.8625 2.49799L10.8602 2.49859L11.1137 3.46591ZM10.787 3.60795L10.2395 2.77116L10.2395 2.77117L10.787 3.60795ZM10.5598 3.85653L9.67994 3.38123L9.67994 3.38123L10.5598 3.85653ZM10.5935 4.68928L9.75388 5.23256L9.76018 5.24207L10.5935 4.68928ZM11.8932 4.46378L12.3503 5.35326L12.36 5.34816L11.8932 4.46378ZM11.3108 4.44957L10.7211 5.2572C10.7259 5.26071 10.7308 5.26418 10.7356 5.2676L11.3108 4.44957ZM11.254 4.03587L12.0445 4.64849L12.0517 4.63897L11.254 4.03587ZM11.6411 3.85831L11.5014 2.86809L11.496 2.86889L11.6411 3.85831ZM11.7796 3.83878L11.9192 4.82898C11.9262 4.82799 11.9333 4.82692 11.9403 4.82579L11.7796 3.83878ZM11.9323 3.81214L12.1152 4.79527C12.1225 4.79391 12.1298 4.79246 12.1371 4.79094L11.9323 3.81214ZM12.069 3.77841L12.3512 4.73777C12.3571 4.73604 12.363 4.73425 12.3688 4.7324L12.069 3.77841ZM12.1667 3.7358H13.1667C13.1667 3.36908 12.9659 3.03179 12.6436 2.85688C12.3213 2.68197 11.9291 2.6975 11.6217 2.89735L12.1667 3.7358ZM12.0939 4.28267L12.9359 4.8221L12.9359 4.82209L12.0939 4.28267ZM14.9552 2.27273H15.9552C15.9552 1.72044 15.5075 1.27273 14.9552 1.27273V2.27273ZM14.9552 2.84091V3.84091C15.5075 3.84091 15.9552 3.39319 15.9552 2.84091H14.9552ZM14.442 2.27273H13.442C13.442 2.82501 13.8898 3.27273 14.442 3.27273V2.27273ZM14.442 1.61932H15.442C15.442 1.06703 14.9943 0.619318 14.442 0.619318V1.61932ZM13.6857 1.61932V0.619318C13.1334 0.619318 12.6857 1.06703 12.6857 1.61932L13.6857 1.61932ZM13.6857 2.27273V3.27273C14.2379 3.27273 14.6857 2.82501 14.6857 2.27273H13.6857ZM13.3128 2.27273V1.27273C12.7605 1.27273 12.3128 1.72044 12.3128 2.27273H13.3128ZM13.3128 2.84091H12.3128C12.3128 3.39319 12.7605 3.84091 13.3128 3.84091V2.84091ZM13.6857 2.84091H14.6857C14.6857 2.28862 14.2379 1.84091 13.6857 1.84091V2.84091ZM13.6857 4.26136L14.6857 4.26799V4.26136H13.6857ZM13.7975 4.70526L12.9577 5.24815L12.9577 5.24816L13.7975 4.70526ZM14.1153 4.96449L13.737 5.89017L13.7398 5.8913L14.1153 4.96449ZM14.5947 5.03729L14.5586 4.03794L14.5558 4.03804L14.5947 5.03729ZM14.8451 5.0071L14.6264 4.03131C14.6211 4.03251 14.6158 4.03374 14.6105 4.03502L14.8451 5.0071ZM15.0049 4.96626L15.3032 5.92074C15.7954 5.76692 16.0899 5.26402 15.9833 4.75948L15.0049 4.96626ZM14.8859 4.40341L15.8643 4.19662C15.752 3.66502 15.2357 3.3204 14.7016 3.42054L14.8859 4.40341ZM14.8043 4.41939L14.9687 5.40578C14.9793 5.40402 14.9898 5.40208 15.0004 5.39997L14.8043 4.41939ZM14.5628 4.40518L14.1864 5.3317L14.1963 5.33559L14.5628 4.40518ZM14.474 4.32528L13.596 4.80418L13.6024 4.81555L14.474 4.32528ZM14.442 2.84091V1.84091C13.8898 1.84091 13.442 2.28862 13.442 2.84091H14.442ZM15.9371 4.88281L15.4415 5.75139L15.4475 5.7548L15.9371 4.88281ZM17.2563 4.95028L17.6277 5.87876L17.631 5.87744L17.2563 4.95028ZM17.6789 4.65909L16.9272 3.99959L16.9268 4.00008L17.6789 4.65909ZM17.8973 4.21875L18.8757 4.42545C18.9356 4.14175 18.8695 3.846 18.6944 3.61488C18.5193 3.38375 18.2525 3.24001 17.9631 3.22092L17.8973 4.21875ZM17.1977 4.17259L17.2636 3.17476C16.8248 3.1458 16.4187 3.40683 16.2627 3.81794L17.1977 4.17259ZM17.0841 4.34659L16.3944 3.62245L16.3944 3.62246L17.0841 4.34659ZM16.9048 4.45312L17.2258 5.40019L17.2258 5.40019L16.9048 4.45312ZM16.3455 4.40874L15.8457 5.27492L15.8457 5.27492L16.3455 4.40874ZM16.1306 4.18146L15.2383 4.63299L15.2427 4.64147L16.1306 4.18146ZM16.056 3.8299V2.8299C15.5038 2.8299 15.056 3.27762 15.056 3.8299H16.056ZM17.9133 3.8299V4.8299C18.4656 4.8299 18.9133 4.38219 18.9133 3.8299H17.9133ZM17.8156 3.01491L16.879 3.36534L16.8798 3.36744L17.8156 3.01491ZM17.5422 2.58168L16.8387 3.29241L16.8423 3.29596L17.5422 2.58168ZM17.1338 2.32422L16.7835 3.26088L16.7921 3.26401L17.1338 2.32422ZM15.9317 2.41477L15.4203 1.55548L15.418 1.55683L15.9317 2.41477ZM15.4719 2.91016L16.3613 3.36728L16.3613 3.36728L15.4719 2.91016ZM15.4719 4.39631L14.5835 4.85546L14.5846 4.8575L15.4719 4.39631ZM16.1324 3.09304L17.0021 3.58666L17.0049 3.58164L16.1324 3.09304ZM16.0567 3.36115L15.0578 3.31463C15.0451 3.58763 15.1447 3.85393 15.3334 4.05162C15.5221 4.2493 15.7835 4.36115 16.0567 4.36115V3.36115ZM16.3384 2.88175L16.8494 3.74129L16.8528 3.73924L16.3384 2.88175ZM16.9332 2.87464L16.4278 3.73753C16.4326 3.74036 16.4374 3.74315 16.4423 3.74589L16.9332 2.87464ZM17.1303 3.07173L16.259 3.56257L16.259 3.56257L17.1303 3.07173ZM17.2013 3.36115V4.36115C17.7536 4.36115 18.2013 3.91344 18.2013 3.36115H17.2013ZM19.1633 1.36364H20.1633C20.1633 0.811352 19.7156 0.363636 19.1633 0.363636V1.36364ZM19.1633 5V6C19.7156 6 20.1633 5.55228 20.1633 5H19.1633ZM18.4069 1.36364V0.363636C17.8546 0.363636 17.4069 0.811352 17.4069 1.36364L18.4069 1.36364ZM18.4069 5H17.4069C17.4069 5.55228 17.8546 6 18.4069 6V5ZM20.5256 1.36364H21.5256C21.5256 0.811352 21.0779 0.363636 20.5256 0.363636V1.36364ZM20.5256 5V6C21.0779 6 21.5256 5.55228 21.5256 5H20.5256ZM19.7692 1.36364V0.363636C19.2169 0.363636 18.7692 0.811352 18.7692 1.36364L19.7692 1.36364ZM19.7692 5H18.7692C18.7692 5.55228 19.2169 6 19.7692 6V5ZM21.1315 5H20.1315C20.1315 5.55228 20.5792 6 21.1315 6V5ZM21.1315 2.27273V1.27273C20.5792 1.27273 20.1315 1.72044 20.1315 2.27273H21.1315ZM21.8879 5V6C22.4402 6 22.8879 5.55228 22.8879 5H21.8879ZM21.8879 2.27273H22.8879C22.8879 1.72044 22.4402 1.27273 21.8879 1.27273V2.27273ZM21.2221 1.8093L20.5313 2.53242C20.535 2.53593 20.5387 2.53941 20.5424 2.54286L21.2221 1.8093ZM21.7991 1.8093L22.4841 2.53782L22.4845 2.53751L21.7991 1.8093ZM21.7991 1.26953L21.1084 1.99264C21.1121 1.99615 21.1158 1.99964 21.1195 2.0031L21.7991 1.26953ZM21.2221 1.26953L21.9071 1.99805L21.9074 1.99773L21.2221 1.26953ZM23.9444 2.27273H24.9444C24.9444 1.72044 24.4967 1.27273 23.9444 1.27273V2.27273ZM23.9444 2.84091V3.84091C24.4967 3.84091 24.9444 3.39319 24.9444 2.84091H23.9444ZM23.4313 2.27273H22.4313C22.4313 2.82501 22.879 3.27273 23.4313 3.27273V2.27273ZM23.4313 1.61932H24.4313C24.4313 1.06703 23.9836 0.619318 23.4313 0.619318V1.61932ZM22.6749 1.61932V0.619318C22.1226 0.619318 21.6749 1.06703 21.6749 1.61932L22.6749 1.61932ZM22.6749 2.27273V3.27273C23.2272 3.27273 23.6749 2.82501 23.6749 2.27273H22.6749ZM22.302 2.27273V1.27273C21.7498 1.27273 21.302 1.72044 21.302 2.27273H22.302ZM22.302 2.84091H21.302C21.302 3.39319 21.7498 3.84091 22.302 3.84091V2.84091ZM22.6749 2.84091H23.6749C23.6749 2.28862 23.2272 1.84091 22.6749 1.84091V2.84091ZM22.6749 4.26136L23.6749 4.26798V4.26136H22.6749ZM22.7868 4.70526L23.6266 4.16236L23.6266 4.16235L22.7868 4.70526ZM23.1046 4.96449L22.7263 5.89017L22.7291 5.8913L23.1046 4.96449ZM23.584 5.03729L23.5479 4.03794L23.5451 4.03804L23.584 5.03729ZM23.8344 5.0071L23.6156 4.03131C23.6103 4.03251 23.605 4.03374 23.5997 4.03502L23.8344 5.0071ZM23.9942 4.96626L24.2924 5.92075C24.7846 5.76693 25.0792 5.26403 24.9725 4.75948L23.9942 4.96626ZM23.8752 4.40341L24.8536 4.19662C24.7412 3.66502 24.2249 3.3204 23.6909 3.42054L23.8752 4.40341ZM23.7935 4.41939L23.9579 5.40578C23.9685 5.40402 23.9791 5.40208 23.9896 5.39997L23.7935 4.41939ZM23.552 4.40518L23.1756 5.3317L23.1855 5.33559L23.552 4.40518ZM23.4633 4.32528L22.5853 4.80418L22.5917 4.81555L23.4633 4.32528ZM23.4313 2.84091V1.84091C22.879 1.84091 22.4313 2.28862 22.4313 2.84091H23.4313ZM24.9263 4.88281L24.4307 5.75139L24.4368 5.7548L24.9263 4.88281ZM26.2456 4.95028L26.617 5.87876L26.6202 5.87744L26.2456 4.95028ZM26.6682 4.65909L25.9165 3.99959L25.916 4.00008L26.6682 4.65909ZM26.8866 4.21875L27.865 4.42545C27.9249 4.14175 27.8587 3.846 27.6836 3.61488C27.5085 3.38375 27.2417 3.24001 26.9524 3.22092L26.8866 4.21875ZM26.187 4.17259L26.2528 3.17476C25.8141 3.1458 25.4079 3.40683 25.252 3.81794L26.187 4.17259ZM26.0733 4.34659L25.3837 3.62245L25.3837 3.62246L26.0733 4.34659ZM25.894 4.45312L25.573 3.50606L25.573 3.50606L25.894 4.45312ZM25.1199 4.18146L24.2276 4.63299L24.232 4.64147L25.1199 4.18146ZM25.0453 3.8299V2.8299C24.493 2.8299 24.0453 3.27762 24.0453 3.8299H25.0453ZM26.9025 3.8299V4.8299C27.4548 4.8299 27.9025 4.38219 27.9025 3.8299H26.9025ZM26.8049 3.01491L25.8683 3.36534L25.8691 3.36744L26.8049 3.01491ZM26.5314 2.58168L25.828 3.29241L25.8316 3.29596L26.5314 2.58168ZM26.1231 2.32422L25.7727 3.26088L25.7813 3.26401L26.1231 2.32422ZM24.921 2.41477L24.4095 1.55548L24.4073 1.55683L24.921 2.41477ZM24.4611 4.39631L23.5728 4.85546L23.5738 4.8575L24.4611 4.39631ZM25.1216 3.09304L25.9914 3.58664L25.9942 3.58164L25.1216 3.09304ZM25.046 3.36115L24.0471 3.31461C24.0344 3.58761 24.1339 3.85392 24.3226 4.05161C24.5113 4.2493 24.7727 4.36115 25.046 4.36115V3.36115ZM25.3276 2.88175L25.8387 3.74129L25.8421 3.73924L25.3276 2.88175ZM25.9224 2.87464L25.417 3.73753C25.4218 3.74036 25.4267 3.74314 25.4316 3.74589L25.9224 2.87464ZM26.1195 3.07173L25.2483 3.56257L25.2483 3.56257L26.1195 3.07173ZM26.1905 3.36115V4.36115C26.7428 4.36115 27.1905 3.91344 27.1905 3.36115H26.1905ZM4.91304 3.66177L5.66155 4.41028L7.07577 2.99607L6.32726 2.24756L4.91304 3.66177ZM5.13199 2.02861L4.91304 2.24756L6.32726 3.66177L6.54621 3.44282L5.13199 2.02861ZM4.98422 2.38437C4.98422 2.25154 5.03685 2.12413 5.13059 2.03002L6.54762 3.44141C6.82723 3.16068 6.98422 2.78059 6.98422 2.38437H4.98422ZM5.13059 2.73872C5.03685 2.64461 4.98422 2.5172 4.98422 2.38437H6.98422C6.98422 1.98815 6.82723 1.60806 6.54762 1.32733L5.13059 2.73872ZM4.75519 2.36333L5.132 2.74013L6.54621 1.32592L6.16941 0.94912L4.75519 2.36333ZM5.10969 2.51112C4.97814 2.51112 4.85191 2.45917 4.75846 2.36658L6.16614 0.945871C5.88506 0.667366 5.50538 0.511119 5.10969 0.511119V2.51112ZM5.46091 2.36658C5.36747 2.45917 5.24124 2.51112 5.10969 2.51112V0.511119C4.71399 0.511119 4.33431 0.667366 4.05323 0.94587L5.46091 2.36658ZM5.24777 2.57974L5.46418 2.36333L4.04996 0.94912L3.83356 1.16553L5.24777 2.57974ZM3.0837 1.83243L3.83476 2.58094L5.24657 1.16433L4.49551 0.415816L3.0837 1.83243ZM3.48919 2C3.33721 2 3.19143 1.93977 3.08378 1.8325L4.49544 0.415741C4.22823 0.149494 3.86639 0 3.48919 0V2ZM3.89459 1.8325C3.78694 1.93977 3.64116 2 3.48919 2V0C3.11197 0 2.75014 0.149495 2.48293 0.41574L3.89459 1.8325ZM2.93604 2.79105L3.89587 1.83123L2.48166 0.417015L1.52183 1.37684L2.93604 2.79105ZM3.10482 2.38437C3.10482 2.53634 3.04459 2.68212 2.93732 2.78978L1.52056 1.37812C1.25431 1.64533 1.10482 2.00716 1.10482 2.38437H3.10482ZM2.93732 1.97896C3.04459 2.08662 3.10482 2.2324 3.10482 2.38437H1.10482C1.10482 2.76158 1.25431 3.12341 1.52056 3.39062L2.93732 1.97896ZM3.6871 2.72874L2.93604 1.97769L1.52183 3.3919L2.27289 4.14296L3.6871 2.72874ZM3.62412 4.20255L3.66231 4.16691L2.29768 2.70479L2.25949 2.74044L3.62412 4.20255ZM3.756 4.01792C3.7304 4.07933 3.69288 4.13505 3.64562 4.18188L2.23799 2.76111C2.09756 2.90024 1.9861 3.06581 1.91002 3.24826L3.756 4.01792ZM3.79479 3.82411C3.79479 3.89064 3.7816 3.95651 3.756 4.01792L1.91002 3.24826C1.83395 3.43071 1.79479 3.62643 1.79479 3.82411H3.79479ZM3.756 3.6303C3.7816 3.6917 3.79479 3.75758 3.79479 3.82411H1.79479C1.79479 4.02178 1.83395 4.2175 1.91003 4.39996L3.756 3.6303ZM3.64562 3.46634C3.69288 3.51317 3.7304 3.56889 3.756 3.6303L1.91002 4.39995C1.9861 4.58241 2.09756 4.74798 2.23799 4.88711L3.64562 3.46634ZM3.66905 3.48976L3.64891 3.46962L2.2347 4.88383L2.25483 4.90397L3.66905 3.48976ZM2.08045 4.91708C2.19022 4.91702 2.29653 4.95117 2.38507 5.0137L3.53881 3.38002C3.11474 3.08054 2.60544 2.91677 2.07927 2.91708L2.08045 4.91708ZM1.70752 5.07181C1.80639 4.97282 1.94054 4.91716 2.08045 4.91708L2.07927 2.91708C1.40893 2.91748 0.7662 3.18415 0.292477 3.65843L1.70752 5.07181ZM2.60074 4.55164L1.70711 3.65801L0.292893 5.07223L1.18652 5.96586L2.60074 4.55164ZM2.54161 5.96662C2.4386 6.0971 2.29509 6.18959 2.13372 6.2295L1.65354 4.288C1.38384 4.3547 1.14401 4.50927 0.971848 4.72733L2.54161 5.96662ZM2.70265 5.50885C2.70128 5.67509 2.64462 5.83614 2.54161 5.96662L0.971848 4.72733C0.799692 4.9454 0.705007 5.21456 0.702718 5.49238L2.70265 5.50885ZM2.48458 4.97331C2.62368 5.11241 2.70209 5.30091 2.70268 5.49763L0.702688 5.5036C0.703679 5.83524 0.835862 6.15302 1.07037 6.38752L2.48458 4.97331ZM1.96027 4.75521C2.15699 4.7558 2.34548 4.83421 2.48458 4.97331L1.07037 6.38752C1.30487 6.62203 1.62265 6.75421 1.95429 6.75521L1.96027 4.75521ZM1.49174 4.91686C1.62444 4.8121 1.78861 4.75514 1.9577 4.75521L1.95686 6.75521C2.23779 6.75533 2.51054 6.6607 2.73102 6.48663L1.49174 4.91686ZM1.22635 5.33259C1.26552 5.16811 1.35902 5.02164 1.49174 4.91686L2.73102 6.48663C2.95152 6.31256 3.10686 6.06921 3.17194 5.79594L1.22635 5.33259ZM3.86769 5.81605L2.90532 4.85622L1.49298 6.27231L2.45535 7.23213L3.86769 5.81605ZM2.60828 5.44429C2.60836 5.5842 2.55287 5.71841 2.45399 5.8174L3.86904 7.23078C4.34276 6.7565 4.60868 6.11346 4.60828 5.44311L2.60828 5.44429ZM2.51143 5.13995C2.57399 5.22839 2.60822 5.3346 2.60828 5.44429L4.60828 5.44311C4.60797 4.91729 4.44382 4.40851 4.14421 3.98496L2.51143 5.13995ZM3.66996 3.69865C3.79849 3.69865 3.92193 3.74792 4.01508 3.83604L2.64057 5.28887C2.91836 5.55169 3.28659 5.69865 3.66996 5.69865V3.69865ZM3.31558 3.84503C3.4097 3.75129 3.53712 3.69865 3.66996 3.69865V5.69865C4.0662 5.69865 4.44629 5.54165 4.72702 5.26202L3.31558 3.84503ZM3.35239 3.80823L3.3142 3.84642L4.72841 5.26063L4.7666 5.22244L3.35239 3.80823ZM5.5151 4.55675L4.7666 3.80823L3.35238 5.22244L4.10088 5.97095L5.5151 4.55675ZM5.10969 4.38861C5.26139 4.38861 5.40691 4.44879 5.5143 4.55595L4.10168 5.97175C4.36923 6.2387 4.73174 6.38861 5.10969 6.38861V4.38861ZM4.70507 4.55595C4.81247 4.44879 4.95798 4.38861 5.10969 4.38861V6.38861C5.48763 6.38861 5.85014 6.2387 6.11769 5.97175L4.70507 4.55595ZM5.66155 3.59946L4.70428 4.55674L6.11849 5.97095L7.07577 5.01367L5.66155 3.59946ZM5.53918 3.78291C5.56855 3.7126 5.61158 3.64881 5.66579 3.59525L7.07154 5.01788C7.20558 4.88542 7.31201 4.72768 7.38465 4.55379L5.53918 3.78291ZM5.49468 4.00487C5.49468 3.92867 5.50981 3.85323 5.53918 3.78291L7.38465 4.55379C7.45728 4.3799 7.49468 4.19332 7.49468 4.00487H5.49468ZM5.53918 4.22683C5.50981 4.15651 5.49468 4.08107 5.49468 4.00487H7.49468C7.49468 3.81642 7.45728 3.62985 7.38465 3.45595L5.53918 4.22683ZM5.66579 4.41449C5.61158 4.36093 5.56855 4.29714 5.53918 4.22683L7.38465 3.45595C7.31201 3.28207 7.20559 3.12432 7.07154 2.99186L5.66579 4.41449ZM2.78208 0.717438L1.82225 1.67726L3.23647 3.09148L4.19629 2.13165L2.78208 0.717438ZM4.946 1.4697L4.19749 0.718639L2.78088 2.13045L3.52939 2.88151L4.946 1.4697ZM3.98752 3.83999L4.9448 2.88271L3.53059 1.46849L2.57331 2.42577L3.98752 3.83999ZM1.82345 3.09268L2.57451 3.84119L3.98632 2.42457L3.23527 1.67606L1.82345 3.09268ZM3.654 4.92322L4.40505 5.67173L5.81686 4.25512L5.06581 3.50661L3.654 4.92322ZM4.61262 2.54798L3.6528 3.50781L5.06701 4.92202L6.02683 3.96219L4.61262 2.54798ZM6.77535 3.29649L6.02683 2.54798L4.61262 3.96219L5.36113 4.7107L6.77535 3.29649ZM5.819 5.66959L6.77628 4.70977L5.36019 3.29743L4.40291 4.25726L5.819 5.66959ZM10.0043 2.05231L9.31182 2.09493L9.43466 4.09115L10.1271 4.04854L10.0043 2.05231ZM9.12696 3.26247C9.12656 3.26218 9.12137 3.25828 9.11379 3.25001C9.10609 3.24159 9.09798 3.2309 9.09073 3.2185C9.07495 3.19153 9.0734 3.17436 9.07432 3.18136L11.0571 2.91949C10.9893 2.40625 10.7341 1.96039 10.3084 1.64875L9.12696 3.26247ZM8.90449 3.23722C9.11923 3.23722 9.15577 3.2837 9.12467 3.26079L10.3107 1.65043C9.88427 1.33633 9.37867 1.23722 8.90449 1.23722V3.23722ZM8.66072 3.27041C8.69295 3.25769 8.76706 3.23722 8.90449 3.23722V1.23722C8.57554 1.23722 8.24245 1.28539 7.92667 1.40999L8.66072 3.27041ZM8.68795 3.23674C8.67392 3.25527 8.65995 3.26751 8.65128 3.27382C8.64335 3.27959 8.64503 3.27665 8.66289 3.26955L7.9245 1.41085C7.61124 1.53529 7.3171 1.73401 7.09333 2.0296L8.68795 3.23674ZM8.7486 3.08594C8.7486 3.08906 8.74805 3.10948 8.73825 3.14069C8.72813 3.17297 8.71183 3.20483 8.69154 3.23197L7.08974 2.03437C6.85185 2.35255 6.7486 2.71939 6.7486 3.08594H8.7486ZM8.65564 2.88777C8.68435 2.91701 8.71199 2.95767 8.73016 3.00484C8.74759 3.05011 8.7486 3.08121 8.7486 3.08594H6.7486C6.7486 3.52133 6.89581 3.95015 7.22863 4.28907L8.65564 2.88777ZM8.73306 2.88483C8.65999 2.87022 8.62277 2.85533 8.61064 2.84969C8.59966 2.84457 8.62057 2.85237 8.65243 2.88452L7.23183 4.29232C7.55345 4.61687 7.96592 4.77101 8.34083 4.84599L8.73306 2.88483ZM9.20466 2.97879L8.73236 2.88469L8.34154 4.84613L8.81384 4.94024L9.20466 2.97879ZM9.89274 3.27845C9.65547 3.09062 9.38809 3.01548 9.20537 2.97894L8.81313 4.9401C8.82998 4.94347 8.82254 4.94336 8.79885 4.93408C8.77644 4.92529 8.71959 4.90058 8.65133 4.84655L9.89274 3.27845ZM10.3589 4.21394C10.3522 3.82585 10.1677 3.4903 9.88254 3.27049L8.66153 4.85451C8.58945 4.79895 8.5088 4.71448 8.44765 4.59592C8.38584 4.47607 8.36101 4.35437 8.35918 4.24841L10.3589 4.21394ZM9.77241 5.27498C10.0768 5.08088 10.3519 4.73013 10.3589 4.24567L8.35914 4.21669C8.36107 4.08367 8.39854 3.94259 8.47697 3.81598C8.55146 3.69573 8.64 3.62506 8.69708 3.58866L9.77241 5.27498ZM8.91514 5.50817C9.16571 5.50817 9.47771 5.46134 9.7692 5.27701L8.70029 3.58662C8.8308 3.5041 8.92973 3.50817 8.91514 3.50817V5.50817ZM8.03371 5.2585C8.32623 5.45084 8.64363 5.50817 8.91514 5.50817V3.50817C8.91677 3.50817 9.01282 3.50868 9.13252 3.58739L8.03371 5.2585ZM7.44 4.37098C7.51046 4.71585 7.70285 5.03647 8.02579 5.25324L9.14043 3.59264C9.20513 3.63607 9.26744 3.6966 9.31672 3.77267C9.36514 3.84741 9.38882 3.91825 9.39952 3.97064L7.44 4.37098ZM7.72823 5.2085L8.47219 5.16943L8.36733 3.17219L7.62336 3.21125L7.72823 5.2085ZM8.62997 4.01282C8.62649 4.01034 8.62863 4.01142 8.63386 4.01695C8.63923 4.02263 8.64581 4.03085 8.65208 4.04119C8.65834 4.05153 8.66242 4.06087 8.66475 4.06762C8.66702 4.07416 8.66677 4.07568 8.66602 4.07034L6.68558 4.3494C6.76034 4.87999 7.03251 5.33097 7.47092 5.64272L8.62997 4.01282ZM8.91337 4.05327C8.68196 4.05327 8.61782 4.00427 8.62481 4.00918L7.47607 5.64636C7.91157 5.95193 8.42272 6.05327 8.91337 6.05327V4.05327ZM9.1594 4.01673C9.12145 4.03235 9.0461 4.05327 8.91337 4.05327V6.05327C9.25412 6.05327 9.59662 5.99961 9.92089 5.86608L9.1594 4.01673ZM9.17824 4.0143C9.18159 4.00997 9.18486 4.00639 9.18765 4.00368C9.19041 4.001 9.192 3.99985 9.19177 4.00002C9.19141 4.00028 9.18149 4.00754 9.15638 4.01798L9.92391 5.86484C10.2413 5.73292 10.535 5.52968 10.7614 5.23641L9.17824 4.0143ZM9.12786 4.15483C9.12786 4.14465 9.1296 4.12026 9.14039 4.08814C9.15134 4.05552 9.16705 4.02861 9.1816 4.00998L10.7581 5.24073C11.007 4.92186 11.1279 4.546 11.1279 4.15483H9.12786ZM9.25261 4.41225C9.2152 4.37756 9.17846 4.32797 9.15392 4.2682C9.13033 4.21073 9.12786 4.16796 9.12786 4.15483H11.1279C11.1279 3.71295 10.9697 3.27697 10.6125 2.94571L9.25261 4.41225ZM9.13835 4.39575C9.2175 4.41201 9.26206 4.42837 9.28151 4.43699C9.30059 4.44545 9.28391 4.44127 9.2526 4.41224L10.6125 2.94571C10.2955 2.65174 9.89816 2.51005 9.54066 2.43663L9.13835 4.39575ZM8.64843 4.29707L9.14203 4.3965L9.53698 2.43588L9.04337 2.33645L8.64843 4.29707ZM7.92417 3.96528C8.17207 4.17937 8.46613 4.25797 8.63575 4.29443L9.05605 2.33909C9.03108 2.33373 9.03531 2.33272 9.05844 2.34206C9.07796 2.34995 9.14849 2.38002 9.2314 2.45163L7.92417 3.96528ZM7.49966 3.04332C7.49966 3.41741 7.66642 3.74267 7.92416 3.96527L9.23141 2.45163C9.2971 2.50837 9.36926 2.59191 9.42313 2.70576C9.47768 2.82106 9.49966 2.9384 9.49966 3.04332H7.49966ZM8.10405 1.99163C7.77711 2.18876 7.49966 2.55269 7.49966 3.04332H9.49966C9.49966 3.17524 9.4646 3.32292 9.38044 3.45906C9.30007 3.58908 9.20205 3.66502 9.13675 3.70439L8.10405 1.99163ZM8.91692 1.77344C8.65829 1.77344 8.3671 1.82909 8.09491 1.99721L9.14589 3.69881C9.03469 3.7675 8.94118 3.77344 8.91692 3.77344V1.77344ZM9.56903 1.91339C9.34261 1.80659 9.11443 1.77344 8.91692 1.77344V3.77344C8.8946 3.77344 8.81675 3.76988 8.7158 3.72226L9.56903 1.91339ZM10.0759 2.30623C9.92544 2.11928 9.73976 1.98899 9.54855 1.90401L8.73628 3.73164C8.67292 3.70348 8.59022 3.65013 8.51788 3.56025L10.0759 2.30623ZM10.3538 2.89693C10.3091 2.67313 10.2104 2.4692 10.0683 2.29685L8.52552 3.56962C8.46146 3.49198 8.41375 3.39458 8.39266 3.28915L10.3538 2.89693ZM11.3819 4.05149C11.3242 4.05149 11.3108 4.04182 11.3221 4.0468L10.5113 5.87508C10.7947 6.0008 11.0915 6.05149 11.3819 6.05149V4.05149ZM11.4128 4.05285C11.4249 4.04867 11.4297 4.04838 11.4247 4.04913C11.4195 4.0499 11.4058 4.05149 11.3819 4.05149V6.05149C11.6023 6.05149 11.8352 6.02273 12.0647 5.9436L11.4128 4.05285ZM11.3465 4.09322C11.3618 4.07994 11.3758 4.07056 11.3866 4.06437C11.3973 4.05829 11.4034 4.05612 11.4031 4.05624L12.0744 5.94021C12.2808 5.86668 12.4814 5.75699 12.6601 5.60138L11.3465 4.09322ZM11.2897 4.16473C11.3038 4.13717 11.3227 4.11431 11.3397 4.09923L12.6669 5.59537C12.8307 5.45009 12.9668 5.27689 13.0685 5.07887L11.2897 4.16473ZM12.2004 3.6218H12.1791V5.6218H12.2004V3.6218ZM13.2004 5V4.6218H11.2004V5H13.2004ZM12.9177 4H12.2004V6H12.9177V4ZM11.9177 3.16051V5H13.9177V3.16051H11.9177ZM11.944 3.21896C11.9285 3.19027 11.9215 3.16706 11.9187 3.15458C11.916 3.14285 11.9177 3.14353 11.9177 3.16051H13.9177C13.9177 2.86992 13.8611 2.55956 13.7032 2.26755L11.944 3.21896ZM12.0012 3.2807C11.9911 3.27385 11.979 3.26372 11.9671 3.25038C11.9552 3.23707 11.947 3.2245 11.942 3.21523L13.7052 2.27128C13.5674 2.01375 13.3734 1.79638 13.1312 1.63052L12.0012 3.2807ZM11.9487 3.25965C11.9844 3.26873 11.9966 3.27753 11.9969 3.2778L13.1354 1.63342C12.9203 1.48454 12.6851 1.38326 12.4415 1.32131L11.9487 3.25965ZM11.76 3.23722C11.8328 3.23722 11.894 3.24565 11.9467 3.25915L12.4434 1.32182C12.2191 1.2643 11.9904 1.23722 11.76 1.23722V3.23722ZM11.5562 3.26512C11.5809 3.25524 11.6422 3.23722 11.76 3.23722V1.23722C11.4423 1.23722 11.1201 1.28548 10.8134 1.40817L11.5562 3.26512ZM11.542 3.26676C11.54 3.2691 11.5379 3.27129 11.5358 3.27317C11.5337 3.27505 11.5323 3.27609 11.5319 3.27637C11.5308 3.2771 11.5364 3.27293 11.5527 3.2665L10.8168 1.40679C10.5166 1.52559 10.2422 1.70921 10.0214 1.96761L11.542 3.26676ZM11.55 3.25641C11.5519 3.2477 11.5528 3.24782 11.55 3.25344C11.5488 3.25602 11.5471 3.25909 11.5449 3.26233C11.5428 3.26557 11.5407 3.26831 11.5389 3.27042L10.0246 1.96395C9.80388 2.21973 9.66278 2.5182 9.59439 2.83734L11.55 3.25641ZM11.3527 2.10697L10.6531 2.05016L10.4912 4.04359L11.1908 4.10041L11.3527 2.10697ZM10.8392 2.07432C10.5939 2.25471 10.4027 2.50945 10.3112 2.82564L12.2323 3.38175C12.2146 3.44298 12.1855 3.50476 12.145 3.56153C12.1049 3.61768 12.0612 3.65821 12.024 3.68562L10.8392 2.07432ZM11.7565 1.78942C11.4794 1.78942 11.1371 1.85083 10.8316 2.07997L12.0316 3.67997C11.887 3.78838 11.7613 3.78942 11.7565 3.78942V1.78942ZM12.716 2.13154C12.4036 1.85617 12.035 1.78942 11.7565 1.78942V3.78942C11.736 3.78942 11.5664 3.78422 11.3936 3.63196L12.716 2.13154ZM13.1613 3.14276C13.1613 2.80279 13.0431 2.41498 12.7097 2.12606L11.3999 3.63743C11.3167 3.56533 11.2505 3.47304 11.2088 3.37106C11.169 3.27348 11.1613 3.19118 11.1613 3.14276H13.1613ZM13.1613 3.15341V3.14276H11.1613V3.15341H13.1613ZM12.6555 4.11339C13.0046 3.8775 13.1613 3.50551 13.1613 3.15341H11.1613C11.1613 3.05563 11.1803 2.92289 11.2505 2.78254C11.3225 2.63855 11.4269 2.52978 11.5358 2.45621L12.6555 4.11339ZM12.0409 4.33994C12.1791 4.31803 12.4265 4.26813 12.6555 4.11338L11.5358 2.45622C11.6172 2.40122 11.6834 2.37838 11.7058 2.37125C11.7315 2.36303 11.7415 2.36243 11.7278 2.36461L12.0409 4.33994ZM11.6047 4.39302C11.7697 4.37579 11.9128 4.35876 12.0291 4.34173L11.7395 2.36281C11.6618 2.37419 11.5491 2.38794 11.3969 2.40385L11.6047 4.39302ZM11.365 4.43382C11.434 4.41592 11.5109 4.40211 11.5969 4.39381L11.4048 2.40306C11.2209 2.42081 11.0397 2.45198 10.8625 2.498L11.365 4.43382ZM11.3346 4.44474C11.3336 4.44539 11.3348 4.44444 11.3394 4.44246C11.344 4.44044 11.3529 4.43699 11.3673 4.43323L10.8602 2.49859C10.6442 2.55519 10.4343 2.64374 10.2395 2.77116L11.3346 4.44474ZM11.4396 4.33184C11.4301 4.34932 11.416 4.3704 11.3963 4.39192C11.3766 4.41352 11.3552 4.43124 11.3346 4.44474L10.2395 2.77117C10.0015 2.92693 9.81281 3.13529 9.67994 3.38123L11.4396 4.33184ZM11.4763 4.23828C11.4763 4.20526 11.4827 4.25209 11.4396 4.33184L9.67994 3.38123C9.52559 3.66694 9.47631 3.96827 9.47631 4.23828H11.4763ZM11.4331 4.14602C11.4566 4.18233 11.4683 4.21444 11.4735 4.23448C11.4783 4.2532 11.4763 4.25646 11.4763 4.23828H9.47631C9.47631 4.56264 9.54761 4.91366 9.75393 5.23253L11.4331 4.14602ZM11.3287 4.04976C11.3389 4.0544 11.3568 4.06421 11.3773 4.0814C11.3979 4.09878 11.4147 4.11824 11.4268 4.13648L9.76018 5.24207C9.94786 5.52499 10.2046 5.73645 10.5046 5.87212L11.3287 4.04976ZM11.5985 5.52947C11.843 5.52947 12.1025 5.48056 12.3503 5.35321L11.4361 3.57435C11.5135 3.53459 11.5764 3.52947 11.5985 3.52947V5.52947ZM10.7356 5.2676C11.0181 5.46621 11.3289 5.52947 11.5985 5.52947V3.52947C11.636 3.52947 11.7551 3.53947 11.886 3.63155L10.7356 5.2676ZM10.199 4.21342C10.199 4.59315 10.3562 4.99073 10.7211 5.2572L11.9005 3.64195C11.9896 3.70696 12.0736 3.80116 12.1307 3.92161C12.1859 4.03829 12.199 4.1436 12.199 4.21342H10.199ZM10.4636 3.42329C10.267 3.67692 10.199 3.96328 10.199 4.21342H12.199C12.199 4.32152 12.1676 4.48951 12.0444 4.64844L10.4636 3.42329ZM11.0146 3.00131C10.8182 3.08545 10.6158 3.22189 10.4563 3.43276L12.0517 4.63897C11.9656 4.75278 11.8662 4.81228 11.8024 4.8396L11.0146 3.00131ZM11.496 2.86889C11.3415 2.89156 11.177 2.93171 11.0146 3.00131L11.8024 4.8396C11.7869 4.84626 11.7769 4.84906 11.7745 4.84972C11.772 4.85038 11.7755 4.84929 11.7862 4.84772L11.496 2.86889ZM11.6399 2.84858L11.5014 2.86811L11.7807 4.84851L11.9192 4.82898L11.6399 2.84858ZM11.7494 2.82901C11.7058 2.83711 11.6624 2.8447 11.6189 2.85177L11.9403 4.82579C11.9986 4.81629 12.0569 4.80612 12.1152 4.79527L11.7494 2.82901ZM11.7868 2.81904C11.7773 2.82186 11.7582 2.82692 11.7274 2.83335L12.1371 4.79094C12.2082 4.77607 12.2802 4.75863 12.3512 4.73777L11.7868 2.81904ZM11.6217 2.89735C11.6659 2.86858 11.7026 2.85101 11.7245 2.84145C11.7472 2.83157 11.763 2.82634 11.7692 2.82441L12.3688 4.7324C12.4557 4.7051 12.5826 4.65809 12.7116 4.57424L11.6217 2.89735ZM13.1667 4.02521V3.7358H11.1667V4.02521H13.1667ZM12.9359 4.82209C13.0944 4.57461 13.1667 4.29916 13.1667 4.02521H11.1667C11.1667 3.94302 11.1903 3.83922 11.2518 3.74325L12.9359 4.82209ZM12.36 5.34816C12.5868 5.22847 12.7875 5.05366 12.9359 4.8221L11.2518 3.74324C11.3031 3.6632 11.3701 3.60913 11.4265 3.5794L12.36 5.34816ZM13.9552 2.27273V2.84091H15.9552V2.27273H13.9552ZM14.442 3.27273H14.9552V1.27273H14.442V3.27273ZM13.442 1.61932V2.27273H15.442V1.61932H13.442ZM13.6857 2.61932H14.442V0.619318H13.6857V2.61932ZM14.6857 2.27273V1.61932H12.6857V2.27273H14.6857ZM13.3128 3.27273H13.6857V1.27273H13.3128V3.27273ZM14.3128 2.84091V2.27273H12.3128V2.84091H14.3128ZM13.6857 1.84091H13.3128V3.84091H13.6857V1.84091ZM14.6857 4.26136V2.84091H12.6857V4.26136H14.6857ZM14.6373 4.16236C14.6934 4.24914 14.6854 4.30616 14.6856 4.26799L12.6857 4.25474C12.6836 4.57405 12.7501 4.927 12.9577 5.24815L14.6373 4.16236ZM14.4937 4.03881C14.5103 4.0456 14.5366 4.05916 14.5658 4.08303C14.5955 4.10722 14.6197 4.13507 14.6373 4.16235L12.9577 5.24816C13.1507 5.54667 13.4223 5.76155 13.737 5.89016L14.4937 4.03881ZM14.5558 4.03804C14.4833 4.04087 14.47 4.02922 14.4909 4.03767L13.7398 5.8913C14.0353 6.01103 14.3416 6.04791 14.6337 6.03653L14.5558 4.03804ZM14.6105 4.03502C14.6203 4.03264 14.6214 4.03305 14.6113 4.03427C14.6015 4.03545 14.5844 4.03701 14.5586 4.03794L14.6309 6.03663C14.7721 6.03153 14.9263 6.01623 15.0797 5.97919L14.6105 4.03502ZM14.7066 4.01179C14.7094 4.01091 14.7045 4.01251 14.6889 4.01649C14.6741 4.02028 14.6536 4.02522 14.6264 4.03131L15.0638 5.98289C15.1422 5.96532 15.2265 5.94471 15.3032 5.92074L14.7066 4.01179ZM13.9076 4.6102L14.0265 5.17305L15.9833 4.75948L15.8643 4.19662L13.9076 4.6102ZM15.0004 5.39997C15.0347 5.3931 15.0573 5.38871 15.0702 5.38628L14.7016 3.42054C14.6767 3.42521 14.6448 3.43147 14.6081 3.43881L15.0004 5.39997ZM14.6977 5.42827C14.7891 5.42827 14.8796 5.42063 14.9687 5.40578L14.6399 3.433C14.6579 3.42998 14.6774 3.42827 14.6977 3.42827V5.42827ZM14.1963 5.33559C14.374 5.40559 14.5473 5.42827 14.6977 5.42827V3.42827C14.7464 3.42827 14.8297 3.43555 14.9293 3.47478L14.1963 5.33559ZM13.6024 4.81555C13.7272 5.03733 13.9251 5.2255 14.1864 5.33165L14.9392 3.47872C15.1247 3.5541 15.2634 3.68899 15.3456 3.83502L13.6024 4.81555ZM13.442 4.16193C13.442 4.31284 13.4616 4.55757 13.5961 4.80414L15.3519 3.84643C15.4006 3.93563 15.4218 4.0137 15.4314 4.06314C15.4412 4.11292 15.442 4.14812 15.442 4.16193H13.442ZM13.442 2.84091V4.16193H15.442V2.84091H13.442ZM14.9552 1.84091H14.442V3.84091H14.9552V1.84091ZM16.6615 4.05327C16.5168 4.05327 16.4513 4.02466 16.4266 4.01083L15.4475 5.7548C15.8277 5.96823 16.2451 6.05327 16.6615 6.05327V4.05327ZM16.8849 4.02181C16.854 4.03419 16.786 4.05327 16.6615 4.05327V6.05327C16.9868 6.05327 17.3154 6.00369 17.6277 5.87876L16.8849 4.02181ZM16.9268 4.00008C16.9287 3.99782 16.9289 3.99843 16.9242 4.00167C16.9191 4.00516 16.9062 4.0132 16.8816 4.02313L17.631 5.87744C17.9301 5.75655 18.2065 5.57438 18.431 5.3181L16.9268 4.00008ZM16.9189 4.01205C16.9182 4.01518 16.9178 4.01621 16.9181 4.01554C16.9183 4.01484 16.919 4.01307 16.9202 4.01058C16.9214 4.00808 16.9229 4.0056 16.9244 4.00338C16.9259 4.00117 16.9269 3.99989 16.9272 3.99959L18.4306 5.3186C18.6573 5.06027 18.8058 4.75631 18.8757 4.42545L16.9189 4.01205ZM17.1319 5.17042L17.8315 5.21658L17.9631 3.22092L17.2636 3.17476L17.1319 5.17042ZM17.7737 5.07074C17.9393 4.91305 18.0574 4.72593 18.1327 4.52723L16.2627 3.81794C16.286 3.75655 16.3283 3.68543 16.3944 3.62245L17.7737 5.07074ZM17.2258 5.40019C17.4229 5.33339 17.6112 5.22557 17.7738 5.07072L16.3944 3.62246C16.4576 3.56231 16.5263 3.52551 16.5837 3.50606L17.2258 5.40019ZM16.6739 5.48864C16.8521 5.48864 17.0392 5.46344 17.2258 5.40019L16.5837 3.50606C16.6306 3.49016 16.6638 3.48864 16.6739 3.48864V5.48864ZM15.8457 5.27492C16.1164 5.43105 16.405 5.48864 16.6739 5.48864V3.48864C16.6896 3.48864 16.7592 3.49295 16.8452 3.54255L15.8457 5.27492ZM15.2427 4.64147C15.378 4.90262 15.5813 5.12238 15.8457 5.27492L16.8452 3.54255C16.881 3.56325 16.9169 3.59088 16.9492 3.62501C16.9813 3.65893 17.0037 3.69286 17.0185 3.72146L15.2427 4.64147ZM15.056 3.83168C15.056 4.08867 15.1036 4.36669 15.2383 4.63297L17.0229 3.72995C17.0582 3.79974 17.056 3.84457 17.056 3.83168H15.056ZM15.056 3.8299V3.83168H17.056V3.8299H15.056ZM17.9133 2.8299H16.056V4.8299H17.9133V2.8299ZM16.9133 3.62216V3.8299H18.9133V3.62216H16.9133ZM16.8798 3.36744C16.8932 3.40284 16.9133 3.48095 16.9133 3.62216H18.9133C18.9133 3.29935 18.8683 2.97263 18.7514 2.66239L16.8798 3.36744ZM16.8423 3.29596C16.8433 3.29687 16.8469 3.30058 16.8528 3.30983C16.8588 3.3194 16.8684 3.33684 16.879 3.36534L18.7522 2.66449C18.6426 2.37153 18.4769 2.09749 18.242 1.86739L16.8423 3.29596ZM16.7921 3.26401C16.8152 3.27243 16.8273 3.28109 16.8387 3.2924L18.2457 1.87095C18.0251 1.65262 17.7649 1.48964 17.4755 1.38443L16.7921 3.26401ZM16.6313 3.23722C16.702 3.23722 16.7498 3.24825 16.7835 3.26084L17.4841 1.3876C17.2077 1.28419 16.9205 1.23722 16.6313 1.23722V3.23722ZM16.4432 3.27407C16.4646 3.26135 16.5153 3.23722 16.6313 3.23722V1.23722C16.2123 1.23722 15.7966 1.33145 15.4203 1.55548L16.4432 3.27407ZM16.3613 3.36728C16.3879 3.31552 16.4136 3.2918 16.4455 3.27272L15.418 1.55683C15.0545 1.77448 14.7737 2.08102 14.5825 2.45303L16.3613 3.36728ZM16.3085 3.64879C16.3085 3.49909 16.3369 3.41466 16.3613 3.36728L14.5825 2.45303C14.389 2.82942 14.3085 3.23742 14.3085 3.64879H16.3085ZM16.3602 3.93715C16.3387 3.89551 16.3085 3.81028 16.3085 3.64879H14.3085C14.3085 4.06259 14.3872 4.4757 14.5835 4.85546L16.3602 3.93715ZM16.4327 4.01426C16.4018 3.99665 16.3812 3.97747 16.3592 3.93511L14.5846 4.8575C14.7804 5.23418 15.0699 5.53933 15.4415 5.75137L16.4327 4.01426ZM15.2627 2.59943C15.1349 2.82458 15.0693 3.06849 15.0578 3.31463L17.0557 3.40767C17.0533 3.45795 17.0381 3.52311 17.0021 3.58665L15.2627 2.59943ZM15.8273 2.02221C15.589 2.16391 15.3955 2.36217 15.2599 2.60444L17.0049 3.58164C16.9885 3.61096 16.9661 3.64207 16.9372 3.67166C16.9084 3.70123 16.878 3.72429 16.8494 3.74128L15.8273 2.02221ZM16.6437 1.80185C16.368 1.80185 16.0846 1.86781 15.8239 2.02425L16.8528 3.73924C16.7697 3.78915 16.6899 3.80185 16.6437 3.80185V1.80185ZM17.4386 2.01176C17.1811 1.86096 16.9051 1.80185 16.6437 1.80185V3.80185C16.6026 3.80185 16.5195 3.79126 16.4278 3.73753L17.4386 2.01176ZM18.0015 2.58089C17.8645 2.33767 17.6672 2.14042 17.424 2.0034L16.4423 3.74589C16.4082 3.72665 16.3722 3.7004 16.3384 3.66654C16.3045 3.63267 16.2782 3.59672 16.259 3.56257L18.0015 2.58089ZM18.2013 3.36115C18.2013 3.10285 18.1437 2.83326 18.0015 2.58089L16.259 3.56257C16.2115 3.4783 16.2013 3.40165 16.2013 3.36115H18.2013ZM16.0567 4.36115H17.2013V2.36115H16.0567V4.36115ZM18.1633 1.36364V5H20.1633V1.36364H18.1633ZM18.4069 2.36364H19.1633V0.363636H18.4069V2.36364ZM19.4069 5V1.36364H17.4069V5H19.4069ZM19.1633 4H18.4069V6H19.1633V4ZM19.5256 1.36364V5H21.5256V1.36364H19.5256ZM19.7692 2.36364H20.5256V0.363636H19.7692V2.36364ZM20.7692 5V1.36364H18.7692V5H20.7692ZM20.5256 4H19.7692V6H20.5256V4ZM22.1315 5V2.27273H20.1315V5H22.1315ZM21.8879 4H21.1315V6H21.8879V4ZM20.8879 2.27273V5H22.8879V2.27273H20.8879ZM21.1315 3.27273H21.8879V1.27273H21.1315V3.27273ZM21.5115 0.921165C21.5677 0.921165 21.6389 0.930909 21.7153 0.960445C21.7921 0.990143 21.8548 1.03234 21.9017 1.07574L20.5424 2.54286C20.8128 2.79337 21.1539 2.92116 21.5115 2.92116V0.921165ZM21.1141 1.08079C21.1624 1.03536 21.2268 0.991724 21.3053 0.961195C21.3832 0.930889 21.4553 0.921165 21.5115 0.921165V2.92116C21.8692 2.92116 22.2127 2.79305 22.4841 2.53782L21.1141 1.08079ZM20.9198 1.53764C20.9198 1.45939 20.9356 1.36898 20.9759 1.27843C21.0156 1.18895 21.0684 1.1238 21.1138 1.0811L22.4845 2.53751C22.7547 2.28323 22.9198 1.93361 22.9198 1.53764H20.9198ZM21.1195 2.0031C21.0732 1.96025 21.0189 1.89432 20.9779 1.8031C20.9362 1.7107 20.9198 1.61808 20.9198 1.53764H22.9198C22.9198 1.13871 22.7512 0.788419 22.4787 0.535963L21.1195 2.0031ZM21.5115 2.15589C21.4534 2.15589 21.3795 2.14567 21.3003 2.11436C21.2206 2.08286 21.1561 2.0382 21.1084 1.99264L22.4898 0.546426C22.2193 0.288004 21.874 0.155895 21.5115 0.155895V2.15589ZM21.9074 1.99773C21.8611 2.04128 21.7983 2.08448 21.7203 2.11512C21.6425 2.14565 21.5696 2.15589 21.5115 2.15589V0.155895C21.1492 0.155895 20.8062 0.28765 20.5367 0.541334L21.9074 1.99773ZM22.1031 1.53764C22.1031 1.61598 22.0874 1.70682 22.0469 1.79807C22.0068 1.88833 21.9535 1.9544 21.9071 1.99805L20.537 0.541008C20.2669 0.794991 20.1031 1.14389 20.1031 1.53764H22.1031ZM21.9128 1.08619C21.9583 1.12966 22.0101 1.19493 22.0488 1.28344C22.088 1.37282 22.1031 1.46146 22.1031 1.53764H20.1031C20.1031 1.9285 20.2636 2.27668 20.5313 2.53242L21.9128 1.08619ZM22.9444 2.27273V2.84091H24.9444V2.27273H22.9444ZM23.4313 3.27273H23.9444V1.27273H23.4313V3.27273ZM22.4313 1.61932V2.27273H24.4313V1.61932H22.4313ZM22.6749 2.61932H23.4313V0.619318H22.6749V2.61932ZM23.6749 2.27273V1.61932H21.6749V2.27273H23.6749ZM22.302 3.27273H22.6749V1.27273H22.302V3.27273ZM23.302 2.84091V2.27273H21.302V2.84091H23.302ZM22.6749 1.84091H22.302V3.84091H22.6749V1.84091ZM23.6749 4.26136V2.84091H21.6749V4.26136H23.6749ZM23.6266 4.16235C23.6827 4.24914 23.6746 4.30616 23.6749 4.26798L21.6749 4.25475C21.6728 4.57405 21.7394 4.927 21.947 5.24816L23.6266 4.16235ZM23.4829 4.03881C23.4995 4.0456 23.5258 4.05916 23.5551 4.08303C23.5848 4.10722 23.6089 4.13508 23.6266 4.16236L21.947 5.24815C22.14 5.54668 22.4116 5.76155 22.7263 5.89016L23.4829 4.03881ZM23.5451 4.03804C23.4725 4.04087 23.4592 4.02922 23.4801 4.03767L22.7291 5.8913C23.0246 6.01103 23.3309 6.04791 23.6229 6.03653L23.5451 4.03804ZM23.5997 4.03502C23.6096 4.03264 23.6106 4.03305 23.6006 4.03427C23.5908 4.03545 23.5736 4.03701 23.5479 4.03794L23.6201 6.03663C23.7614 6.03153 23.9155 6.01623 24.069 5.97919L23.5997 4.03502ZM23.6959 4.01178C23.6987 4.01091 23.6938 4.01251 23.6782 4.01649C23.6634 4.02028 23.6428 4.02522 23.6156 4.03131L24.0531 5.98289C24.1315 5.96531 24.2157 5.94471 24.2924 5.92075L23.6959 4.01178ZM22.8968 4.6102L23.0158 5.17305L24.9725 4.75948L24.8536 4.19662L22.8968 4.6102ZM23.9896 5.39997C24.024 5.3931 24.0465 5.38871 24.0595 5.38628L23.6909 3.42054C23.666 3.42521 23.6341 3.43147 23.5974 3.43881L23.9896 5.39997ZM23.687 5.42827C23.7783 5.42827 23.8688 5.42063 23.9579 5.40578L23.6291 3.433C23.6472 3.42998 23.6667 3.42827 23.687 3.42827V5.42827ZM23.1855 5.33559C23.3632 5.40559 23.5365 5.42827 23.687 5.42827V3.42827C23.7356 3.42827 23.819 3.43555 23.9186 3.47478L23.1855 5.33559ZM22.5917 4.81555C22.7164 5.03733 22.9144 5.22549 23.1757 5.33165L23.9284 3.47872C24.114 3.5541 24.2527 3.689 24.3348 3.83502L22.5917 4.81555ZM22.4313 4.16193C22.4313 4.31283 22.4509 4.55756 22.5854 4.80414L24.3412 3.84643C24.3898 3.93564 24.411 4.01371 24.4207 4.06314C24.4304 4.11293 24.4313 4.14812 24.4313 4.16193H22.4313ZM22.4313 2.84091V4.16193H24.4313V2.84091H22.4313ZM23.9444 1.84091H23.4313V3.84091H23.9444V1.84091ZM25.6508 4.05327C25.5061 4.05327 25.4405 4.02466 25.4159 4.01083L24.4368 5.7548C24.817 5.96823 25.2344 6.05327 25.6508 6.05327V4.05327ZM25.8742 4.02181C25.8432 4.03419 25.7752 4.05327 25.6508 4.05327V6.05327C25.9761 6.05327 26.3046 6.00369 26.617 5.87876L25.8742 4.02181ZM25.916 4.00008C25.918 3.99782 25.9181 3.99843 25.9134 4.00167C25.9084 4.00516 25.8955 4.0132 25.8709 4.02313L26.6202 5.87744C26.9194 5.75655 27.1957 5.57438 27.4203 5.3181L25.916 4.00008ZM25.9082 4.01205C25.9075 4.01518 25.9071 4.01621 25.9073 4.01554C25.9076 4.01484 25.9082 4.01307 25.9095 4.01058C25.9107 4.00808 25.9121 4.0056 25.9136 4.00338C25.9151 4.00117 25.9162 3.99989 25.9165 3.99959L27.4199 5.3186C27.6465 5.06027 27.7951 4.75631 27.865 4.42545L25.9082 4.01205ZM26.1211 5.17042L26.8207 5.21658L26.9524 3.22092L26.2528 3.17476L26.1211 5.17042ZM26.763 5.07074C26.9286 4.91305 27.0466 4.72593 27.122 4.52723L25.252 3.81794C25.2753 3.75655 25.3176 3.68543 25.3837 3.62245L26.763 5.07074ZM26.2151 5.40019C26.4121 5.33339 26.6004 5.22557 26.763 5.07072L25.3837 3.62246C25.4468 3.5623 25.5156 3.52551 25.573 3.50606L26.2151 5.40019ZM25.6632 5.48864C25.8414 5.48864 26.0285 5.46344 26.2151 5.40019L25.573 3.50606C25.6199 3.49016 25.6531 3.48864 25.6632 3.48864V5.48864ZM24.835 5.27492C25.1056 5.43105 25.3943 5.48864 25.6632 5.48864V3.48864C25.6788 3.48864 25.7485 3.49295 25.8344 3.54255L24.835 5.27492ZM24.232 4.64147C24.3672 4.90262 24.5706 5.12238 24.835 5.27492L25.8344 3.54255C25.8703 3.56325 25.9062 3.59088 25.9385 3.62501C25.9705 3.65893 25.993 3.69286 26.0078 3.72146L24.232 4.64147ZM24.0453 3.83168C24.0453 4.08868 24.0929 4.36669 24.2276 4.63297L26.0121 3.72996C26.0474 3.79974 26.0453 3.84456 26.0453 3.83168H24.0453ZM24.0453 3.8299V3.83168H26.0453V3.8299H24.0453ZM26.9025 2.8299H25.0453V4.8299H26.9025V2.8299ZM25.9025 3.62216V3.8299H27.9025V3.62216H25.9025ZM25.8691 3.36744C25.8824 3.40284 25.9025 3.48095 25.9025 3.62216H27.9025C27.9025 3.29935 27.8576 2.97263 27.7407 2.66239L25.8691 3.36744ZM25.8316 3.29596C25.8325 3.29687 25.8362 3.30058 25.842 3.30983C25.8481 3.3194 25.8576 3.33684 25.8683 3.36534L27.7415 2.66449C27.6319 2.37153 27.4661 2.09749 27.2313 1.86739L25.8316 3.29596ZM25.7813 3.26401C25.8045 3.27243 25.8165 3.28109 25.828 3.2924L27.2349 1.87095C27.0143 1.65262 26.7542 1.48964 26.4648 1.38443L25.7813 3.26401ZM25.6206 3.23722C25.6913 3.23722 25.7391 3.24825 25.7727 3.26084L26.4734 1.3876C26.1969 1.28419 25.9097 1.23722 25.6206 1.23722V3.23722ZM25.4325 3.27407C25.4538 3.26135 25.5046 3.23722 25.6206 3.23722V1.23722C25.2015 1.23722 24.7859 1.33145 24.4095 1.55548L25.4325 3.27407ZM25.3505 3.36728C25.3771 3.31552 25.4029 3.2918 25.4347 3.27272L24.4073 1.55683C24.0438 1.77449 23.7629 2.08102 23.5717 2.45303L25.3505 3.36728ZM25.2978 3.64879C25.2978 3.49909 25.3262 3.41466 25.3505 3.36728L23.5717 2.45303C23.3783 2.82942 23.2978 3.23742 23.2978 3.64879H25.2978ZM25.3495 3.93715C25.328 3.89551 25.2978 3.81028 25.2978 3.64879H23.2978C23.2978 4.06259 23.3765 4.4757 23.5728 4.85546L25.3495 3.93715ZM25.4219 4.01426C25.3911 3.99666 25.3704 3.97747 25.3484 3.93511L23.5738 4.8575C23.7696 5.23417 24.0591 5.53933 24.4307 5.75137L25.4219 4.01426ZM24.252 2.59945C24.1242 2.82458 24.0586 3.06848 24.0471 3.31461L26.0449 3.40769C26.0426 3.45796 26.0274 3.52311 25.9913 3.58663L24.252 2.59945ZM24.8165 2.02222C24.5782 2.16391 24.3848 2.36216 24.2491 2.60444L25.9942 3.58164C25.9777 3.61096 25.9553 3.64208 25.9265 3.67166C25.8977 3.70123 25.8673 3.72429 25.8387 3.74128L24.8165 2.02222ZM25.633 1.80185C25.3573 1.80185 25.0739 1.86781 24.8131 2.02425L25.8421 3.73924C25.7589 3.78915 25.6791 3.80185 25.633 3.80185V1.80185ZM26.4278 2.01176C26.1704 1.86096 25.8943 1.80185 25.633 1.80185V3.80185C25.5919 3.80185 25.5088 3.79126 25.417 3.73753L26.4278 2.01176ZM26.9908 2.58089C26.8537 2.33767 26.6565 2.14042 26.4133 2.0034L25.4316 3.74589C25.3974 3.72665 25.3615 3.7004 25.3276 3.66654C25.2938 3.63267 25.2675 3.59672 25.2483 3.56257L26.9908 2.58089ZM27.1905 3.36115C27.1905 3.10285 27.1329 2.83326 26.9908 2.58089L25.2483 3.56257C25.2008 3.4783 25.1905 3.40165 25.1905 3.36115H27.1905ZM25.046 4.36115H26.1905V2.36115H25.046V4.36115Z" fill="#0A205A" mask="url(#path-1-outside-1_366_9)"/>
</svg>
