<svg width="4" height="4" viewBox="0 0 4 4" fill="none" xmlns="http://www.w3.org/2000/svg">
<path d="M3.45167 3.215L2.885 2.65C3.06783 2.41708 3.16704 2.12944 3.16667 1.83333C3.16667 1.56963 3.08847 1.31184 2.94196 1.09257C2.79545 0.873308 2.58721 0.702411 2.34358 0.601495C2.09994 0.500578 1.83185 0.474173 1.57321 0.52562C1.31457 0.577067 1.07699 0.704055 0.890525 0.890525C0.704055 1.07699 0.577067 1.31457 0.52562 1.57321C0.474173 1.83185 0.500578 2.09994 0.601495 2.34358C0.702411 2.58721 0.873308 2.79545 1.09257 2.94196C1.31184 3.08847 1.56963 3.16667 1.83333 3.16667C2.12944 3.16704 2.41708 3.06783 2.65 2.885L3.215 3.45167C3.23049 3.46729 3.24893 3.47969 3.26924 3.48815C3.28955 3.49661 3.31133 3.50097 3.33333 3.50097C3.35534 3.50097 3.37712 3.49661 3.39743 3.48815C3.41774 3.47969 3.43617 3.46729 3.45167 3.45167C3.46729 3.43617 3.47969 3.41774 3.48815 3.39743C3.49661 3.37712 3.50097 3.35534 3.50097 3.33333C3.50097 3.31133 3.49661 3.28955 3.48815 3.26924C3.47969 3.24893 3.46729 3.23049 3.45167 3.215ZM0.833334 1.83333C0.833334 1.63555 0.891983 1.44221 1.00186 1.27776C1.11175 1.11331 1.26792 0.985142 1.45065 0.909454C1.63338 0.833767 1.83444 0.813963 2.02842 0.852549C2.22241 0.891134 2.40059 0.986375 2.54044 1.12623C2.68029 1.26608 2.77553 1.44426 2.81412 1.63824C2.8527 1.83222 2.8329 2.03329 2.75721 2.21602C2.68153 2.39874 2.55335 2.55492 2.3889 2.6648C2.22446 2.77468 2.03112 2.83333 1.83333 2.83333C1.56812 2.83333 1.31376 2.72798 1.12623 2.54044C0.938691 2.3529 0.833334 2.09855 0.833334 1.83333Z" fill="#231F20"/>
</svg>
